<svg version="1.1" id="Layer_1" xmlns="http://www.w3.org/2000/svg" xmlns:xlink="http://www.w3.org/1999/xlink" x="0px" y="0px"
	 width="100%" viewBox="0 0 1024 1024" enable-background="new 0 0 1024 1024" xml:space="preserve">
<path fill="#000000" opacity="1.000000" stroke="none" 
	d="
M544.000000,1025.000000 
	C362.666656,1025.000000 181.833328,1025.000000 1.000000,1025.000000 
	C1.000000,683.666687 1.000000,342.333344 1.000000,1.000000 
	C342.333344,1.000000 683.666687,1.000000 1025.000000,1.000000 
	C1025.000000,342.333344 1025.000000,683.666687 1025.000000,1025.000000 
	C864.833313,1025.000000 704.666687,1025.000000 544.000000,1025.000000 
M326.769348,444.752533 
	C327.159302,444.872131 327.549255,444.991760 327.913208,445.031464 
	C327.913208,445.031464 327.837494,445.068024 327.628021,445.694855 
	C328.059174,446.167816 328.490295,446.640778 328.966827,447.054749 
	C328.966827,447.054749 328.901001,447.019989 329.083313,447.541534 
	C329.365479,447.771454 329.647644,448.001343 330.140778,448.719727 
	C330.678070,449.168945 331.215363,449.618164 331.973877,450.604279 
	C332.335419,451.052032 332.696960,451.499786 333.335266,452.591766 
	C333.819489,453.085968 334.303711,453.580170 334.923798,454.679138 
	C335.261749,455.250580 335.569427,455.842590 335.942047,456.390411 
	C346.159119,471.411957 350.351746,487.993225 349.102509,506.082642 
	C348.981354,507.836853 349.762146,510.449829 351.045349,511.347504 
	C354.231964,513.576782 357.951447,515.044434 361.932465,517.058533 
	C361.932465,515.410889 361.932465,514.005066 361.999847,511.654449 
	C361.949890,504.538422 362.705475,497.306641 361.702362,490.327606 
	C358.386200,467.254578 348.996826,447.131531 330.610260,432.046082 
	C316.672028,420.610291 301.149750,412.395844 282.147034,409.957001 
	C269.702209,407.694855 257.335297,407.967194 244.283844,411.045288 
	C238.458160,413.453583 232.681229,415.988983 226.797363,418.245575 
	C211.240967,424.211761 200.033875,435.229706 190.525635,448.996338 
	C180.494812,462.619629 175.724518,478.147430 173.881302,494.756714 
	C173.418961,498.923065 172.726212,503.063812 172.810806,507.819153 
	C173.053848,507.996368 173.296875,508.173553 173.792297,509.182068 
	C174.949341,531.150879 183.161804,550.293213 196.915955,567.262878 
	C198.527313,569.251038 199.624847,571.655518 200.318832,574.277588 
	C193.935211,579.653259 189.956589,587.960815 180.323883,590.333862 
	C170.571564,597.135559 169.569534,607.496948 177.990479,615.028931 
	C177.990479,615.028931 177.900894,615.067871 178.268951,615.652954 
	C179.499863,616.139465 180.730774,616.625977 181.843628,617.092102 
	C181.843628,617.092102 181.820953,617.209717 181.868668,617.738220 
	C188.693954,621.441223 196.867096,618.981873 201.788589,611.555725 
	C203.054230,607.924561 206.400696,607.830261 209.366196,607.132874 
	C223.927826,603.708435 238.494568,600.305664 253.711334,597.025879 
	C258.869171,595.897766 264.058746,594.894592 269.173187,593.595581 
	C272.352539,592.788025 274.496704,592.975281 276.813049,596.009155 
	C282.155151,603.006104 292.376434,604.866394 300.534821,600.928345 
	C301.296265,600.358032 302.057709,599.787720 303.406433,599.005493 
	C303.633270,598.676392 303.860077,598.347290 304.011719,598.105713 
	C304.011719,598.105713 304.099792,598.180420 304.591522,598.065674 
	C309.018738,594.780151 311.031128,590.436401 311.202820,584.872437 
	C311.293060,581.947144 311.704437,578.285583 313.474945,576.293213 
	C319.657990,569.335388 326.778900,563.211548 332.971405,556.261230 
	C336.256317,552.574280 339.510895,552.127991 343.802032,553.248352 
	C350.272614,554.937744 357.748810,550.980286 361.259277,544.246704 
	C364.644043,537.754150 363.426117,530.671814 358.025299,525.910950 
	C358.025299,525.910950 358.107208,525.973511 357.950623,525.440308 
	C357.642487,525.254822 357.334351,525.069275 357.066406,524.963501 
	C357.066406,524.963501 357.141388,524.915039 356.968323,524.471375 
	C355.693542,523.612305 354.418762,522.753235 352.684052,521.307556 
	C346.924896,519.152466 341.284515,518.375549 335.567566,522.892395 
	C330.830902,525.897095 328.695953,530.164978 328.907135,535.800903 
	C329.046661,539.524414 329.475677,543.226807 326.084869,546.330078 
	C320.587708,551.361084 315.517303,556.859009 310.276367,562.169312 
	C307.005371,565.483521 304.136627,569.917969 298.431702,566.312439 
	C298.406158,566.296265 298.062561,566.783447 297.049164,566.902161 
	C293.392639,563.378906 290.062469,566.796814 286.594482,567.384949 
	C280.494995,568.419373 276.666321,572.139526 273.959839,577.508667 
	C273.255798,578.905396 271.620697,580.409424 270.151184,580.757324 
	C247.463181,586.128784 224.731873,591.317261 201.924652,596.568054 
	C201.009796,595.116455 200.166779,593.778809 198.780792,591.579651 
	C202.998489,587.720703 207.398605,584.110352 211.298157,580.022522 
	C216.248764,574.832886 216.298599,571.439758 211.748978,566.112671 
	C202.439377,555.212219 193.743286,543.971863 189.382950,529.373474 
	C188.617294,527.210876 187.851639,525.048279 187.043976,522.960571 
	C187.043976,522.960571 187.123215,522.993713 187.083557,522.196533 
	C185.908356,510.524231 184.909134,498.845825 188.089920,487.312592 
	C189.684418,481.531097 191.476608,475.804108 193.124054,470.148865 
	C193.124054,470.148865 193.226151,470.192749 193.846222,469.985870 
	C194.604965,468.332275 195.363724,466.678711 196.044540,465.028076 
	C196.044540,465.028076 196.056931,465.105072 196.556732,464.743408 
	C196.747620,464.166809 196.938507,463.590210 197.039719,463.048584 
	C197.039719,463.048584 197.083710,463.134216 197.587784,462.875183 
	C198.339111,461.596954 199.090424,460.318726 200.136795,458.556427 
	C200.451920,458.095703 200.767044,457.635010 201.561996,456.841461 
	C202.359055,455.708466 203.156113,454.575439 204.448929,452.956299 
	C204.572021,452.760315 204.695129,452.564331 205.256104,452.070374 
	C206.224838,450.742828 207.193573,449.415314 208.082504,448.023773 
	C208.082504,448.023773 208.023529,448.107391 208.547195,447.936005 
	C208.734146,447.631409 208.921082,447.326813 209.029449,447.061523 
	C209.029449,447.061523 209.075867,447.136108 209.627029,446.898926 
	C210.132034,446.293091 210.637039,445.687256 211.067734,445.033203 
	C211.067734,445.033203 211.027237,445.112030 211.554489,444.944916 
	C211.739059,444.638123 211.923630,444.331299 212.023315,444.093964 
	C212.023315,444.093964 212.096909,444.175293 212.591843,444.046753 
	C219.100220,439.382690 225.608597,434.718658 232.036865,430.023926 
	C232.036865,430.023926 232.012665,430.106232 232.617355,430.015106 
	C233.111160,429.693726 233.604965,429.372345 234.022141,429.045319 
	C234.022141,429.045319 234.025116,429.122131 234.658569,429.064789 
	C236.082047,428.643494 237.564255,428.359619 238.920029,427.779907 
	C255.219101,420.810760 272.128204,419.871277 288.983917,424.392181 
	C297.958954,426.799408 306.316742,431.508270 315.257904,435.730011 
	C316.976044,436.844269 318.694183,437.958557 320.726074,439.684143 
	C321.789124,440.529510 322.852142,441.374847 324.076721,442.630402 
	C324.257812,442.886688 324.504120,443.033875 325.189331,443.630524 
	C325.777618,443.795929 326.365936,443.961334 326.951935,444.049225 
	C326.951935,444.049225 326.877625,444.071442 326.769348,444.752533 
M274.897949,538.887268 
	C273.279144,538.955688 271.660309,539.024048 269.278259,538.943298 
	C268.505554,538.974976 267.732819,539.006714 266.089081,538.964783 
	C261.711914,538.950867 257.334747,538.936890 252.365051,539.247620 
	C248.771408,544.213013 245.021332,549.077576 241.706177,554.222412 
	C240.977585,555.353088 241.794525,557.479675 241.967102,559.669678 
	C245.263000,566.049561 249.793976,570.270569 257.689148,569.033752 
	C258.793213,568.860779 260.035034,569.567383 261.820557,569.185364 
	C261.996521,568.937134 262.172485,568.688843 263.101288,568.199280 
	C265.462585,567.693542 268.173828,567.757080 270.113037,566.564819 
	C274.266296,564.011414 278.020508,560.809021 282.644165,557.705627 
	C286.502472,556.241821 290.360779,554.778076 294.561188,553.184509 
	C291.295135,548.544739 288.316772,544.044434 285.002747,539.806458 
	C284.231842,538.820679 282.318787,538.728027 280.338806,538.132385 
	C279.369171,538.362671 278.399536,538.592957 277.027374,538.576965 
	C276.587280,538.674377 276.147217,538.771729 274.897949,538.887268 
M559.187256,502.703156 
	C559.187256,502.703156 559.262451,502.687988 559.740845,502.831543 
	C560.031860,502.696777 560.322876,502.562012 561.433960,502.738373 
	C564.943787,502.859467 568.453613,502.980560 571.990906,503.023529 
	C571.990906,503.023529 571.911682,502.999420 571.934631,503.938538 
	C571.913818,515.422119 571.874329,526.905701 571.877747,538.389282 
	C571.880859,548.971680 577.717285,557.222656 587.704895,560.643799 
	C595.014099,563.147522 602.382874,562.279297 609.780396,560.915710 
	C609.780396,554.971436 609.780396,549.208313 609.780396,542.979675 
	C606.708862,542.979675 603.905396,543.033691 601.104614,542.968994 
	C594.317261,542.812195 591.299316,539.990540 591.173889,533.252319 
	C591.012939,524.600586 591.216309,515.942200 591.058350,507.290375 
	C590.997009,503.927765 592.479492,502.944855 595.561035,503.034424 
	C600.170715,503.168488 604.787170,503.069275 609.644165,503.069275 
	C609.644165,496.809296 609.644165,491.099548 609.644165,485.040833 
	C603.525330,485.040833 597.738037,485.040833 591.404846,484.227966 
	C591.404846,477.655701 591.404846,471.083435 591.404846,464.066528 
	C585.183289,465.127441 579.859436,465.991089 574.554504,466.958588 
	C571.924561,467.438263 570.777222,468.921173 570.812317,471.822479 
	C570.865540,476.226379 570.364197,480.636993 569.156982,484.963837 
	C565.443237,484.963837 561.729431,484.963837 558.073730,484.963837 
	C558.073730,491.125763 558.073730,496.562286 558.085083,502.427399 
	C558.427856,502.512512 558.770569,502.597595 559.187256,502.703156 
M524.972778,540.936646 
	C524.972778,540.936646 524.953430,540.830505 524.318665,540.943970 
	C516.873047,544.102417 509.455902,543.959045 501.935883,540.356750 
	C501.782990,540.099915 501.558685,539.949585 500.857727,539.271606 
	C499.906616,535.646301 498.229919,532.040039 498.134430,528.392334 
	C497.786346,515.094299 498.028534,501.781677 497.858154,488.476959 
	C497.839600,487.030090 496.577911,485.603546 495.923004,484.153961 
	C495.851318,483.995392 495.980438,483.746124 496.016479,483.538910 
	C493.839233,483.912872 491.673096,484.495636 489.482147,484.612549 
	C486.067627,484.794739 482.636292,484.660736 478.934326,484.660736 
	C478.934326,500.673279 478.805145,516.122253 479.019043,531.566467 
	C479.077484,535.787781 479.860840,540.067078 480.836975,544.195496 
	C484.329254,558.965942 497.364990,564.760559 510.866943,562.400757 
	C517.124451,561.307068 523.039856,558.255554 529.495911,555.954102 
	C529.660706,557.119324 529.921387,558.961975 530.283936,561.525391 
	C536.258545,561.020264 542.119751,560.524780 548.523743,559.986755 
	C548.609070,559.657654 548.694397,559.328491 548.874390,558.066895 
	C548.874390,533.794739 548.874390,509.522614 548.874390,485.064667 
	C542.313904,485.064667 536.195374,485.064667 529.966980,485.064667 
	C527.780884,503.415894 532.298889,521.979980 527.005066,539.871460 
	C527.005066,539.871460 526.908447,539.772583 526.281189,539.483276 
	C525.809937,539.959900 525.338745,540.436523 524.972778,540.936646 
M323.051819,503.947754 
	C323.051819,503.947754 323.145966,503.966309 323.055481,503.424377 
	C322.338440,499.812073 320.520691,498.909912 317.039093,500.468140 
	C314.355469,501.669189 311.415070,502.361969 308.531891,503.037750 
	C303.081451,504.315216 299.189911,506.817810 297.601196,512.783142 
	C296.172424,518.147827 293.460999,523.158875 291.669800,528.446045 
	C291.098877,530.131226 290.947998,532.679810 291.837341,534.008240 
	C294.938904,538.641174 298.579895,542.912964 301.992798,547.292419 
	C307.125122,545.113892 311.870575,543.226562 316.485779,541.061707 
	C317.834656,540.428955 319.774261,539.034973 319.807404,537.940430 
	C320.050995,529.888489 323.524475,523.019287 327.707703,515.755432 
	C331.033356,511.562073 326.843353,509.566315 325.053772,506.389404 
	C324.396790,505.545258 323.739807,504.701111 323.051819,503.947754 
M425.008392,500.947510 
	C425.008392,500.947510 425.100159,500.978455 425.055756,500.044891 
	C425.055756,492.236877 425.055756,484.428864 425.055756,475.987518 
	C427.276764,475.987518 429.065094,475.987579 430.853394,475.987488 
	C442.341675,475.986847 453.831818,475.873566 465.317047,476.060852 
	C468.382538,476.110840 469.627319,474.984467 469.645386,472.154358 
	C469.679626,466.796936 469.655304,461.439148 469.655304,456.248840 
	C467.089569,455.953033 465.623688,455.791870 464.165192,455.580017 
	C464.118835,455.573273 464.148163,455.045563 464.142212,454.760712 
	C464.281952,454.838196 464.421692,454.915680 464.561432,454.993164 
	C464.238342,455.021912 463.915253,455.076080 463.592194,455.075836 
	C444.778137,455.062256 425.964050,455.038086 407.149994,455.044556 
	C406.207916,455.044891 405.265900,455.307068 403.955780,455.502136 
	C403.955780,459.187225 403.955963,462.655090 403.955750,466.122925 
	C403.954041,496.092377 403.939056,526.061829 403.980896,556.031189 
	C403.983612,557.976501 402.955292,560.828674 406.472626,560.899658 
	C412.574951,561.022827 418.681610,560.933838 424.940521,560.933838 
	C425.043060,559.085327 425.158600,557.946411 425.161316,556.807190 
	C425.186432,546.317932 425.297882,535.827148 425.148254,525.340210 
	C425.092682,521.446594 426.556549,519.805359 430.438599,520.131897 
	C432.422577,520.298706 434.432068,520.163025 436.430023,520.163086 
	C446.192657,520.163330 455.955322,520.163147 465.790863,520.163147 
	C465.790863,513.470947 465.790863,507.398010 465.790863,500.894379 
	C463.874573,500.894379 462.245331,500.895660 460.616089,500.894196 
	C450.626282,500.885376 440.636475,500.872925 430.646667,500.868866 
	C428.418671,500.867950 426.021881,500.970062 425.977417,497.831970 
	C425.889801,491.650360 425.951569,485.466644 425.951569,479.283783 
	C427.107910,485.736755 427.176514,492.176910 427.017242,498.611420 
	C426.998291,499.376587 425.735260,500.110931 425.008392,500.947510 
M815.944153,536.502441 
	C815.944153,544.385071 815.944153,552.267761 815.944153,560.007019 
	C822.945129,560.007019 829.351685,560.007019 836.022278,560.007019 
	C836.022278,549.473145 836.022278,539.255371 836.022278,528.158081 
	C843.000488,536.527893 849.790649,543.974915 855.743469,552.040039 
	C860.235901,558.126465 865.006653,561.742249 873.033142,560.375427 
	C877.492920,559.615967 882.188232,560.239136 887.564636,560.239136 
	C876.556763,546.770081 865.927673,533.764404 855.347839,520.819092 
	C865.378845,508.705078 875.088196,496.979492 885.339783,484.599091 
	C877.951294,484.599091 871.342529,484.390900 864.761475,484.726196 
	C862.791809,484.826538 860.354553,485.968353 859.061401,487.446533 
	C851.396851,496.207428 844.005676,505.207550 835.763245,515.032471 
	C835.763245,494.619568 835.763245,475.418793 835.763245,456.088898 
	C828.950684,456.088898 822.536804,456.088898 815.944153,456.088898 
	C815.944153,482.687286 815.944153,509.094635 815.944153,536.502441 
M751.052490,527.516785 
	C751.058411,523.685242 750.890320,519.843872 751.104553,516.024048 
	C751.638306,506.504944 759.408203,500.262421 768.768555,501.664886 
	C778.275879,503.089355 783.001038,509.511139 782.936340,520.620544 
	C782.860107,533.724121 782.918518,546.828613 782.918518,560.010864 
	C789.554443,560.010864 795.990479,560.010864 802.020630,560.010864 
	C802.020630,543.010498 802.562439,526.207336 801.791504,509.464630 
	C801.407288,501.120819 797.556030,493.466003 790.224854,488.347198 
	C783.826416,483.879608 776.604919,482.351532 768.967468,483.063721 
	C761.264709,483.782013 754.984314,487.329285 750.006714,494.965118 
	C750.006714,490.845947 750.006714,488.106689 750.006714,485.271545 
	C743.490051,485.271545 737.283508,485.271545 731.247681,485.271545 
	C731.247681,510.517731 731.247681,535.424744 731.247681,560.296204 
	C737.974304,560.296204 744.396118,560.296204 751.054504,560.296204 
	C751.054504,549.483276 751.054504,538.997559 751.052490,527.516785 
M624.744934,500.499084 
	C624.744934,520.448792 624.744934,540.398560 624.744934,560.557007 
	C645.769714,560.557007 666.314758,560.557007 686.894714,560.557007 
	C686.894714,553.682617 686.894714,547.089355 686.894714,540.119141 
	C672.938477,540.119141 659.205872,540.119141 644.967285,540.119141 
	C644.967285,511.880981 644.967285,484.018250 644.967285,456.267273 
	C637.899902,456.267273 631.347961,456.267273 624.744812,456.267273 
	C624.744812,470.891846 624.744812,485.195404 624.744934,500.499084 
M300.476257,496.075165 
	C305.968658,494.350800 311.559875,492.875427 316.895966,490.757233 
	C318.597046,490.081940 320.572113,487.816772 320.785797,486.078003 
	C321.613495,479.343201 321.920593,472.531097 322.102753,465.739227 
	C322.151581,463.918701 321.611328,461.531494 320.414032,460.324066 
	C315.303558,455.170074 310.218811,449.857025 304.416412,445.557922 
	C297.764526,440.629517 297.441528,441.072113 290.772095,445.844055 
	C288.478638,447.485016 286.380890,449.644379 283.831726,450.640991 
	C272.361206,455.125580 270.198730,463.944916 271.948547,474.807159 
	C272.027008,475.293854 271.841156,475.842224 271.986969,476.294678 
	C272.223022,477.027252 272.441284,477.985474 272.996826,478.362335 
	C281.862152,484.375824 290.779968,490.311981 300.476257,496.075165 
M245.583221,490.048828 
	C250.387817,486.218750 255.241867,482.447906 259.957886,478.511719 
	C260.980988,477.657837 262.027649,476.275696 262.185059,475.026184 
	C263.979218,460.783325 263.047668,458.616150 251.387222,450.926941 
	C246.566772,447.748169 241.476196,444.979004 236.508453,442.023590 
	C231.230194,446.013916 225.951080,450.003143 220.676285,453.998016 
	C220.412674,454.197662 220.110779,454.403564 219.954025,454.678986 
	C217.536636,458.926666 211.974228,461.481598 213.020889,467.597412 
	C213.805176,472.180115 215.060654,476.756012 215.188782,481.360443 
	C215.394257,488.744171 219.211960,491.395813 225.942184,493.469147 
	C233.294312,495.734009 239.487976,497.034821 245.583221,490.048828 
M212.523758,544.071289 
	C217.029358,545.675781 221.592194,547.138062 226.025253,548.922791 
	C230.979874,550.917419 233.562592,549.075867 237.016891,545.066406 
	C244.089005,536.857666 244.384720,529.706055 240.342468,519.490906 
	C236.166321,508.937378 230.361603,503.113525 219.644608,501.116882 
	C216.576370,500.545197 214.403076,499.943329 212.109558,503.106567 
	C209.006165,507.386688 204.985718,510.993591 201.494629,515.007568 
	C200.737610,515.877991 199.869659,517.549744 200.216522,518.344543 
	C203.950043,526.898621 207.916916,535.350891 212.523758,544.071289 
M716.901489,533.500000 
	C716.901489,517.401489 716.901489,501.302979 716.901489,485.240295 
	C709.931091,485.240295 703.529846,485.240295 697.340088,485.240295 
	C697.340088,510.609650 697.340088,535.656006 697.340088,560.638428 
	C704.010132,560.638428 710.276978,560.638428 716.906555,560.638428 
	C716.906555,551.749634 716.906555,543.124817 716.901489,533.500000 
M704.869141,453.955658 
	C696.781433,456.024994 692.359253,462.414093 694.437378,469.027130 
	C696.363586,475.156891 702.887695,479.104034 709.209167,477.964264 
	C715.670837,476.799255 720.365906,470.971924 719.690735,464.954926 
	C718.927124,458.149811 713.661377,454.002899 704.869141,453.955658 
z"/>
<path fill="#26A62E" opacity="1.000000" stroke="none" 
	d="
M180.963135,590.154907 
	C189.956589,587.960815 193.935211,579.653259 200.882278,573.990967 
	C201.184677,572.251221 201.346542,570.515076 200.594193,569.390808 
	C195.617538,561.954712 189.303726,555.181946 185.576797,547.189880 
	C178.172195,531.311523 174.212204,514.516846 175.849197,496.592773 
	C177.013245,483.847076 179.818787,471.784515 185.700760,460.411346 
	C187.654419,456.633820 189.201553,452.646027 190.934540,448.754364 
	C200.033875,435.229706 211.240967,424.211761 226.797363,418.245575 
	C232.681229,415.988983 238.458160,413.453583 244.941437,411.327759 
	C257.482025,411.388794 269.365265,411.178986 281.247162,410.910309 
	C281.823944,410.897247 282.389069,410.367249 282.959625,410.077972 
	C301.149750,412.395844 316.672028,420.610291 330.610260,432.046082 
	C348.996826,447.131531 358.386200,467.254578 361.702362,490.327606 
	C362.705475,497.306641 361.949890,504.538422 361.950928,512.402100 
	C361.592621,513.524658 361.305054,514.204224 360.970459,514.228271 
	C356.898773,514.520508 350.858765,509.084747 351.049835,505.085724 
	C351.752014,490.389496 349.355225,476.340668 342.105316,463.421753 
	C340.191376,460.011200 337.254883,457.174561 334.787933,454.074371 
	C334.303711,453.580170 333.819489,453.085968 333.407593,452.079132 
	C332.904175,451.066803 332.328430,450.567108 331.752686,450.067383 
	C331.215363,449.618164 330.678070,449.168945 329.934204,448.220276 
	C329.452057,447.487213 329.176544,447.253601 328.901001,447.019989 
	C328.901001,447.019989 328.966827,447.054749 328.942566,446.767822 
	C328.558044,446.009918 328.197754,445.538971 327.837494,445.068024 
	C327.837494,445.068024 327.913208,445.031464 327.820190,444.834320 
	C327.444000,444.448608 327.160797,444.260040 326.877625,444.071442 
	C326.877625,444.071442 326.951935,444.049225 326.779877,443.818451 
	C326.010437,443.415802 325.413025,443.243896 324.815643,443.072021 
	C324.504120,443.033875 324.257812,442.886688 323.984680,442.038025 
	C322.732544,440.654694 321.572418,439.863770 320.412292,439.072845 
	C318.694183,437.958557 316.976044,436.844269 315.075409,435.100372 
	C314.218445,433.790405 313.645508,432.947510 312.854645,432.453552 
	C292.860077,419.966400 271.303375,416.825989 248.583618,422.476532 
	C243.494614,423.742157 238.865799,426.858063 234.025116,429.122131 
	C234.025116,429.122131 234.022141,429.045319 233.747192,429.065979 
	C232.985718,429.426514 232.499191,429.766357 232.012665,430.106232 
	C232.012665,430.106232 232.036865,430.023926 231.702484,430.063721 
	C227.164932,432.566650 222.797562,434.795013 218.817902,437.577820 
	C216.280487,439.352112 214.317459,441.947845 212.096893,444.175293 
	C212.096909,444.175293 212.023315,444.093964 211.827393,444.175903 
	C211.430054,444.542572 211.228638,444.827301 211.027222,445.112030 
	C211.027237,445.112030 211.067734,445.033203 210.764557,445.075989 
	C209.999542,445.791260 209.537720,446.463684 209.075867,447.136108 
	C209.075867,447.136108 209.029449,447.061523 208.831421,447.159912 
	C208.430115,447.541351 208.226837,447.824371 208.023529,448.107391 
	C208.023529,448.107391 208.082504,448.023773 207.795868,448.053925 
	C206.612228,449.512177 205.715225,450.940277 204.818222,452.368378 
	C204.695129,452.564331 204.572021,452.760315 203.985016,453.364563 
	C202.708115,454.906647 201.895142,456.040466 201.082153,457.174286 
	C200.767044,457.635010 200.451920,458.095703 199.642944,458.845520 
	C198.460648,460.467804 197.772186,461.800995 197.083710,463.134216 
	C197.083710,463.134216 197.039719,463.048584 196.815369,463.196228 
	C196.412994,463.930908 196.234970,464.518005 196.056946,465.105072 
	C196.056931,465.105072 196.044540,465.028076 195.751221,465.159058 
	C194.713989,466.924286 193.970062,468.558533 193.226151,470.192749 
	C193.226151,470.192749 193.124054,470.148865 192.841537,470.273651 
	C186.720581,480.198822 184.548843,491.135345 184.235718,502.215729 
	C184.040924,509.109039 186.084335,516.065552 187.123215,522.993713 
	C187.123215,522.993713 187.043976,522.960571 187.032288,523.337891 
	C187.866165,525.791382 188.711716,527.867554 189.557251,529.943787 
	C193.743286,543.971863 202.439377,555.212219 211.748978,566.112671 
	C216.298599,571.439758 216.248764,574.832886 211.298157,580.022522 
	C207.398605,584.110352 202.998489,587.720703 198.780792,591.579651 
	C200.166779,593.778809 201.009796,595.116455 201.924652,596.568054 
	C224.731873,591.317261 247.463181,586.128784 270.151184,580.757324 
	C271.620697,580.409424 273.255798,578.905396 273.959839,577.508667 
	C276.666321,572.139526 280.494995,568.419373 286.594482,567.384949 
	C290.062469,566.796814 293.392639,563.378906 297.706879,566.914795 
	C302.063843,569.645996 305.097137,570.134094 308.698029,566.045654 
	C314.514435,559.441772 321.038055,553.458618 327.296814,547.247375 
	C329.931763,544.632446 330.511108,541.784668 330.475006,537.933228 
	C330.437866,533.972595 332.737793,529.967957 334.145935,526.029358 
	C334.567078,524.851440 335.427765,523.830627 336.087036,522.737854 
	C341.284515,518.375549 346.924896,519.152466 352.754028,521.801514 
	C354.263123,523.168640 355.702240,524.041809 357.141388,524.915039 
	C357.141388,524.915039 357.066406,524.963501 357.159882,525.164612 
	C357.537964,525.568298 357.822601,525.770935 358.107208,525.973511 
	C358.107208,525.973511 358.025299,525.910950 358.063721,526.257019 
	C358.182983,526.924683 358.195007,527.286255 358.354828,527.562073 
	C361.889435,533.661072 362.710449,540.267700 358.337860,545.801147 
	C353.658630,551.722717 347.015320,553.588501 339.494324,550.452942 
	C338.455994,550.020020 336.385712,550.545410 335.548340,551.382568 
	C327.321869,559.606201 319.236725,567.971924 311.170105,576.353638 
	C310.287689,577.270508 309.112610,578.592896 309.194641,579.639282 
	C309.730896,586.480957 308.176270,592.652466 304.099792,598.180420 
	C304.099792,598.180420 304.011719,598.105713 303.788269,598.200439 
	C303.316284,598.602539 303.067719,598.910034 302.819183,599.217468 
	C302.057709,599.787720 301.296265,600.358032 299.979004,600.665039 
	C290.030457,601.969849 281.695557,600.733765 275.757294,592.130188 
	C275.159271,591.263733 272.734802,591.219299 271.275818,591.472473 
	C267.694275,592.093994 264.144287,592.985229 260.653503,594.012512 
	C258.063690,594.774597 255.586716,595.920349 253.059494,596.895264 
	C238.494568,600.305664 223.927826,603.708435 209.366196,607.132874 
	C206.400696,607.830261 203.054230,607.924561 201.139709,611.804260 
	C197.606293,613.763245 194.904648,616.134460 191.785629,616.997803 
	C188.682281,617.856750 185.159698,617.201172 181.820953,617.209717 
	C181.820953,617.209717 181.843628,617.092102 181.722504,616.817383 
	C180.367874,616.051086 179.134384,615.559509 177.900894,615.067871 
	C177.900894,615.067871 177.990479,615.028931 177.949173,614.693176 
	C174.614639,608.562195 172.572922,602.616882 176.403458,596.283447 
	C177.715164,594.114685 179.431595,592.190674 180.963135,590.154907 
z"/>
<path fill="#E7E4DC" opacity="1.000000" stroke="none" 
	d="
M815.944153,536.002197 
	C815.944153,509.094635 815.944153,482.687286 815.944153,456.088898 
	C822.536804,456.088898 828.950684,456.088898 835.763245,456.088898 
	C835.763245,475.418793 835.763245,494.619568 835.763245,515.032471 
	C844.005676,505.207550 851.396851,496.207428 859.061401,487.446533 
	C860.354553,485.968353 862.791809,484.826538 864.761475,484.726196 
	C871.342529,484.390900 877.951294,484.599091 885.339783,484.599091 
	C875.088196,496.979492 865.378845,508.705078 855.347839,520.819092 
	C865.927673,533.764404 876.556763,546.770081 887.564636,560.239136 
	C882.188232,560.239136 877.492920,559.615967 873.033142,560.375427 
	C865.006653,561.742249 860.235901,558.126465 855.743469,552.040039 
	C849.790649,543.974915 843.000488,536.527893 836.022278,528.158081 
	C836.022278,539.255371 836.022278,549.473145 836.022278,560.007019 
	C829.351685,560.007019 822.945129,560.007019 815.944153,560.007019 
	C815.944153,552.267761 815.944153,544.385071 815.944153,536.002197 
z"/>
<path fill="#E7E4DC" opacity="1.000000" stroke="none" 
	d="
M751.053467,528.014282 
	C751.054504,538.997559 751.054504,549.483276 751.054504,560.296204 
	C744.396118,560.296204 737.974304,560.296204 731.247681,560.296204 
	C731.247681,535.424744 731.247681,510.517731 731.247681,485.271545 
	C737.283508,485.271545 743.490051,485.271545 750.006714,485.271545 
	C750.006714,488.106689 750.006714,490.845947 750.006714,494.965118 
	C754.984314,487.329285 761.264709,483.782013 768.967468,483.063721 
	C776.604919,482.351532 783.826416,483.879608 790.224854,488.347198 
	C797.556030,493.466003 801.407288,501.120819 801.791504,509.464630 
	C802.562439,526.207336 802.020630,543.010498 802.020630,560.010864 
	C795.990479,560.010864 789.554443,560.010864 782.918518,560.010864 
	C782.918518,546.828613 782.860107,533.724121 782.936340,520.620544 
	C783.001038,509.511139 778.275879,503.089355 768.768555,501.664886 
	C759.408203,500.262421 751.638306,506.504944 751.104553,516.024048 
	C750.890320,519.843872 751.058411,523.685242 751.053467,528.014282 
z"/>
<path fill="#E7E4DC" opacity="1.000000" stroke="none" 
	d="
M624.744873,499.999023 
	C624.744812,485.195404 624.744812,470.891846 624.744812,456.267273 
	C631.347961,456.267273 637.899902,456.267273 644.967285,456.267273 
	C644.967285,484.018250 644.967285,511.880981 644.967285,540.119141 
	C659.205872,540.119141 672.938477,540.119141 686.894714,540.119141 
	C686.894714,547.089355 686.894714,553.682617 686.894714,560.557007 
	C666.314758,560.557007 645.769714,560.557007 624.744934,560.557007 
	C624.744934,540.398560 624.744934,520.448792 624.744873,499.999023 
z"/>
<path fill="#26A62E" opacity="1.000000" stroke="none" 
	d="
M501.262970,539.905884 
	C501.558685,539.949585 501.782990,540.099915 502.034241,540.932251 
	C503.294403,542.612854 504.438293,544.641296 505.621002,544.664185 
	C510.879547,544.765991 516.171082,544.485779 521.399353,543.891357 
	C522.683411,543.745361 523.773926,541.896545 524.953430,540.830505 
	C524.953430,540.830505 524.972778,540.936646 525.241821,540.926636 
	C525.976746,540.535339 526.442627,540.153931 526.908447,539.772583 
	C526.908447,539.772583 527.005066,539.871460 527.244141,539.718384 
	C528.661133,535.864868 530.729004,532.194397 530.854919,528.458435 
	C531.281250,515.809875 531.211426,503.133698 530.921936,490.477448 
	C530.813660,485.745300 533.561523,485.328918 536.564575,486.156555 
	C540.118958,487.136169 546.752747,482.234070 546.878662,490.165649 
	C547.222290,511.820465 547.024658,533.484375 546.924316,555.144165 
	C546.918579,556.376770 545.932007,558.626160 545.286133,558.669250 
	C540.988586,558.956238 536.591675,559.170471 532.388489,558.457275 
	C531.342346,558.279724 530.888855,554.609863 530.130981,552.454041 
	C529.690796,552.407593 529.165405,552.209290 528.738770,552.338135 
	C527.952942,552.575378 527.140076,552.889648 526.485962,553.371765 
	C518.686890,559.120239 509.987061,560.784546 500.399994,560.166321 
	C494.586304,559.791443 490.477478,556.661560 487.601898,552.755859 
	C482.227173,545.455627 480.054016,536.728394 480.030396,527.589417 
	C480.003662,517.259216 480.027191,506.928864 480.020264,496.598602 
	C480.013062,485.871460 480.010345,486.042725 490.981720,485.930267 
	C494.944763,485.889679 496.159515,487.102570 496.087646,491.049713 
	C495.866241,503.208740 495.779510,515.380920 496.129333,527.533997 
	C496.259460,532.053650 495.748322,537.381470 501.262970,539.905884 
z"/>
<path fill="#26A62E" opacity="1.000000" stroke="none" 
	d="
M560.613831,502.427246 
	C560.322876,502.562012 560.031860,502.696777 559.464111,502.234619 
	C559.133118,497.669495 559.166992,493.697449 558.994812,489.734344 
	C558.872620,486.923950 560.072937,485.986908 562.806091,485.961426 
	C565.530640,485.936066 568.250244,485.384094 571.320068,484.808350 
	C571.668152,479.921906 571.668152,475.290100 571.668152,470.658264 
	C571.078369,470.687317 570.488586,470.716339 569.898804,470.745361 
	C570.230652,475.515961 570.562439,480.286560 570.695007,485.071716 
	C570.495789,485.086304 570.098450,485.044739 570.098450,485.044739 
	C570.364197,480.636993 570.865540,476.226379 570.812317,471.822479 
	C570.777222,468.921173 571.924561,467.438263 574.554504,466.958588 
	C579.859436,465.991089 585.183289,465.127441 591.404846,464.066528 
	C591.404846,471.083435 591.404846,477.655701 591.652222,484.929169 
	C595.527283,485.762390 599.162354,486.097931 602.780457,485.966339 
	C606.073975,485.846558 607.143799,487.114624 607.088440,490.338593 
	C606.888672,501.966644 608.047546,499.817230 597.647339,500.035461 
	C597.147644,500.045929 596.647278,500.027344 596.147705,500.039825 
	C591.386169,500.158875 589.075317,502.293396 589.027344,506.971436 
	C588.943604,515.135437 588.712036,523.317749 589.164551,531.457764 
	C589.344238,534.689331 590.663269,538.145325 592.371521,540.945129 
	C596.116455,547.082947 602.794495,545.302124 608.957214,546.108398 
	C608.957214,549.507507 609.307861,553.025635 608.783752,556.408325 
	C608.575623,557.751404 606.492371,559.700745 605.150879,559.795959 
	C601.724976,560.039062 598.206299,558.953308 594.777771,559.184509 
	C582.426270,560.017517 576.682495,552.714294 575.226318,543.359192 
	C573.450562,531.950806 573.702393,520.230225 572.986145,508.650269 
	C572.868713,506.751740 572.281677,504.882294 571.911743,502.999420 
	C571.911682,502.999420 571.990906,503.023529 571.880859,502.671997 
	C568.051880,502.356079 564.332825,502.391632 560.613831,502.427246 
z"/>
<path fill="#E7E4DC" opacity="1.000000" stroke="none" 
	d="
M300.081055,496.170471 
	C290.779968,490.311981 281.862152,484.375824 272.996826,478.362335 
	C272.441284,477.985474 272.223022,477.027252 271.986969,476.294678 
	C271.841156,475.842224 272.027008,475.293854 271.948547,474.807159 
	C270.198730,463.944916 272.361206,455.125580 283.831726,450.640991 
	C286.380890,449.644379 288.478638,447.485016 290.772095,445.844055 
	C297.441528,441.072113 297.764526,440.629517 304.416412,445.557922 
	C310.218811,449.857025 315.303558,455.170074 320.414032,460.324066 
	C321.611328,461.531494 322.151581,463.918701 322.102753,465.739227 
	C321.920593,472.531097 321.613495,479.343201 320.785797,486.078003 
	C320.572113,487.816772 318.597046,490.081940 316.895966,490.757233 
	C311.559875,492.875427 305.968658,494.350800 300.081055,496.170471 
z"/>
<path fill="#E7E4DC" opacity="1.000000" stroke="none" 
	d="
M245.312500,490.289368 
	C239.487976,497.034821 233.294312,495.734009 225.942184,493.469147 
	C219.211960,491.395813 215.394257,488.744171 215.188782,481.360443 
	C215.060654,476.756012 213.805176,472.180115 213.020889,467.597412 
	C211.974228,461.481598 217.536636,458.926666 219.954025,454.678986 
	C220.110779,454.403564 220.412674,454.197662 220.676285,453.998016 
	C225.951080,450.003143 231.230194,446.013916 236.508453,442.023590 
	C241.476196,444.979004 246.566772,447.748169 251.387222,450.926941 
	C263.047668,458.616150 263.979218,460.783325 262.185059,475.026184 
	C262.027649,476.275696 260.980988,477.657837 259.957886,478.511719 
	C255.241867,482.447906 250.387817,486.218750 245.312500,490.289368 
z"/>
<path fill="#E7E4DC" opacity="1.000000" stroke="none" 
	d="
M212.171844,543.951172 
	C207.916916,535.350891 203.950043,526.898621 200.216522,518.344543 
	C199.869659,517.549744 200.737610,515.877991 201.494629,515.007568 
	C204.985718,510.993591 209.006165,507.386688 212.109558,503.106567 
	C214.403076,499.943329 216.576370,500.545197 219.644608,501.116882 
	C230.361603,503.113525 236.166321,508.937378 240.342468,519.490906 
	C244.384720,529.706055 244.089005,536.857666 237.016891,545.066406 
	C233.562592,549.075867 230.979874,550.917419 226.025253,548.922791 
	C221.592194,547.138062 217.029358,545.675781 212.171844,543.951172 
z"/>
<path fill="#E7E4DC" opacity="1.000000" stroke="none" 
	d="
M716.904053,534.000000 
	C716.906555,543.124817 716.906555,551.749634 716.906555,560.638428 
	C710.276978,560.638428 704.010132,560.638428 697.340088,560.638428 
	C697.340088,535.656006 697.340088,510.609650 697.340088,485.240295 
	C703.529846,485.240295 709.931091,485.240295 716.901489,485.240295 
	C716.901489,501.302979 716.901489,517.401489 716.904053,534.000000 
z"/>
<path fill="#26C12F" opacity="1.000000" stroke="none" 
	d="
M425.048889,500.859558 
	C425.735260,500.110931 426.998291,499.376587 427.017242,498.611420 
	C427.176514,492.176910 427.107910,485.736755 425.951569,479.283783 
	C425.951569,485.466644 425.889801,491.650360 425.977417,497.831970 
	C426.021881,500.970062 428.418671,500.867950 430.646667,500.868866 
	C440.636475,500.872925 450.626282,500.885376 460.616089,500.894196 
	C462.245331,500.895660 463.874573,500.894379 465.790863,500.894379 
	C465.790863,507.398010 465.790863,513.470947 465.790863,520.163147 
	C455.955322,520.163147 446.192657,520.163330 436.430023,520.163086 
	C434.432068,520.163025 432.422577,520.298706 430.438599,520.131897 
	C426.556549,519.805359 425.092682,521.446594 425.148254,525.340210 
	C425.297882,535.827148 425.186432,546.317932 425.161316,556.807190 
	C425.158600,557.946411 425.043060,559.085327 424.940521,560.933838 
	C418.681610,560.933838 412.574951,561.022827 406.472626,560.899658 
	C402.955292,560.828674 403.983612,557.976501 403.980896,556.031189 
	C403.939056,526.061829 403.954041,496.092377 403.955750,466.122925 
	C403.955963,462.655090 403.955780,459.187225 403.955780,455.502136 
	C405.265900,455.307068 406.207916,455.044891 407.149994,455.044556 
	C425.964050,455.038086 444.778137,455.062256 463.592194,455.075836 
	C463.915253,455.076080 464.238342,455.021912 464.561432,454.993164 
	C464.421692,454.915680 464.281952,454.838196 464.142212,454.760712 
	C464.148163,455.045563 464.118835,455.573273 464.165192,455.580017 
	C465.623688,455.791870 467.089569,455.953033 469.655304,456.248840 
	C469.655304,461.439148 469.679626,466.796936 469.645386,472.154358 
	C469.627319,474.984467 468.382538,476.110840 465.317047,476.060852 
	C453.831818,475.873566 442.341675,475.986847 430.853394,475.987488 
	C429.065094,475.987579 427.276764,475.987518 425.055756,475.987518 
	C425.055756,484.428864 425.055756,492.236877 424.771545,500.225616 
	C424.323853,492.608337 423.932831,484.802246 424.210480,477.020020 
	C424.259399,475.647949 427.074707,473.274292 428.660889,473.233185 
	C440.266846,472.932739 451.888489,472.970490 463.496735,473.251709 
	C465.838562,473.308441 467.438324,473.495697 467.773041,470.797668 
	C468.517761,464.794403 466.630310,457.242737 464.373260,457.087433 
	C463.883026,457.053680 463.382782,457.183777 462.885956,457.223145 
	C459.751923,457.471497 456.618439,457.912537 453.483063,457.927521 
	C438.111542,458.001099 422.739532,457.960938 406.965027,457.960938 
	C406.965027,465.344055 406.965393,472.707642 406.964966,480.071198 
	C406.963531,504.718231 406.912140,529.365540 407.071625,554.011536 
	C407.082306,555.658875 408.541107,558.593872 409.580994,558.713379 
	C414.121552,559.234985 418.756165,558.937622 423.806152,558.937622 
	C423.806152,547.174988 423.622192,536.109375 423.872650,525.053528 
	C424.032104,518.015076 424.321106,518.026001 431.349762,518.018372 
	C439.466370,518.009583 447.593903,518.222412 455.693054,517.839355 
	C458.155212,517.722839 462.077942,516.520508 462.698029,514.842346 
	C465.713898,506.680878 462.806763,503.038910 454.113159,503.000458 
	C445.858948,502.963928 437.601990,503.092010 429.352386,502.893158 
	C427.902405,502.858185 426.482605,501.569336 425.048889,500.859558 
M420.437469,560.067200 
	C419.375580,560.255310 418.313690,560.443359 417.251801,560.631470 
	C417.315552,561.027039 417.379303,561.422668 417.443054,561.818237 
	C418.975800,561.818237 420.508545,561.818237 422.041290,561.818237 
	C421.802063,561.244324 421.562836,560.670410 420.437469,560.067200 
z"/>
<path fill="#26A62E" opacity="1.000000" stroke="none" 
	d="
M280.931244,538.224365 
	C282.318787,538.728027 284.231842,538.820679 285.002747,539.806458 
	C288.316772,544.044434 291.295135,548.544739 294.561188,553.184509 
	C290.360779,554.778076 286.502472,556.241821 282.073730,557.572388 
	C280.174225,557.957397 278.659760,558.222534 277.547729,559.037048 
	C272.384064,562.819336 267.398376,566.505981 260.461517,566.798157 
	C254.148178,567.064087 248.157822,567.795410 244.679642,560.852600 
	C244.266159,560.027222 242.850739,559.703735 241.899734,559.147644 
	C241.794525,557.479675 240.977585,555.353088 241.706177,554.222412 
	C245.021332,549.077576 248.771408,544.213013 252.957306,539.381348 
	C258.019745,539.356201 262.489929,539.197266 266.960114,539.038391 
	C267.732819,539.006714 268.505554,538.974976 269.965271,539.276733 
	C274.078613,539.148193 277.504913,538.686279 280.931244,538.224365 
z"/>
<path fill="#26A62E" opacity="1.000000" stroke="none" 
	d="
M325.104828,506.853729 
	C326.843353,509.566315 331.033356,511.562073 327.199341,515.762451 
	C324.419708,519.812561 320.748810,523.664734 320.165833,527.938171 
	C318.916687,537.095032 314.181702,541.943604 305.641052,543.924927 
	C305.179108,544.032043 304.790070,544.613647 304.352875,544.631775 
	C303.571930,544.664185 302.666046,544.642944 302.010376,544.283264 
	C294.857788,540.359253 291.856506,531.621460 294.966156,524.078125 
	C296.295654,520.852966 297.915558,517.687805 298.754608,514.333069 
	C300.326263,508.049042 304.847534,505.636810 310.489105,504.326019 
	C312.105835,503.950409 313.703094,503.137543 315.307404,503.142273 
	C317.921051,503.149933 320.533203,503.665222 323.145966,503.966309 
	C323.145966,503.966309 323.051819,503.947754 323.062286,504.215942 
	C323.750122,505.273987 324.427490,506.063843 325.104828,506.853729 
z"/>
<path fill="#26C12F" opacity="1.000000" stroke="none" 
	d="
M501.060364,539.588745 
	C495.748322,537.381470 496.259460,532.053650 496.129333,527.533997 
	C495.779510,515.380920 495.866241,503.208740 496.087646,491.049713 
	C496.159515,487.102570 494.944763,485.889679 490.981720,485.930267 
	C480.010345,486.042725 480.013062,485.871460 480.020264,496.598602 
	C480.027191,506.928864 480.003662,517.259216 480.030396,527.589417 
	C480.054016,536.728394 482.227173,545.455627 487.601898,552.755859 
	C490.477478,556.661560 494.586304,559.791443 500.399994,560.166321 
	C509.987061,560.784546 518.686890,559.120239 526.485962,553.371765 
	C527.140076,552.889648 527.952942,552.575378 528.738770,552.338135 
	C529.165405,552.209290 529.690796,552.407593 530.130981,552.454041 
	C530.888855,554.609863 531.342346,558.279724 532.388489,558.457275 
	C536.591675,559.170471 540.988586,558.956238 545.286133,558.669250 
	C545.932007,558.626160 546.918579,556.376770 546.924316,555.144165 
	C547.024658,533.484375 547.222290,511.820465 546.878662,490.165649 
	C546.752747,482.234070 540.118958,487.136169 536.564575,486.156555 
	C533.561523,485.328918 530.813660,485.745300 530.921936,490.477448 
	C531.211426,503.133698 531.281250,515.809875 530.854919,528.458435 
	C530.729004,532.194397 528.661133,535.864868 527.195923,539.767944 
	C532.298889,521.979980 527.780884,503.415894 529.966980,485.064667 
	C536.195374,485.064667 542.313904,485.064667 548.874390,485.064667 
	C548.874390,509.522614 548.874390,533.794739 548.656128,558.672485 
	C548.236755,559.498718 548.084412,559.749146 547.980957,560.029236 
	C542.119751,560.524780 536.258545,561.020264 530.283936,561.525391 
	C529.921387,558.961975 529.660706,557.119324 529.495911,555.954102 
	C523.039856,558.255554 517.124451,561.307068 510.866943,562.400757 
	C497.364990,564.760559 484.329254,558.965942 480.836975,544.195496 
	C479.860840,540.067078 479.077484,535.787781 479.019043,531.566467 
	C478.805145,516.122253 478.934326,500.673279 478.934326,484.660736 
	C482.636292,484.660736 486.067627,484.794739 489.482147,484.612549 
	C491.673096,484.495636 493.839233,483.912872 496.016479,483.538910 
	C495.980438,483.746124 495.851318,483.995392 495.923004,484.153961 
	C496.577911,485.603546 497.839600,487.030090 497.858154,488.476959 
	C498.028534,501.781677 497.786346,515.094299 498.134430,528.392334 
	C498.229919,532.040039 499.906616,535.646301 501.060364,539.588745 
M493.443390,484.909607 
	C493.792603,484.473053 494.141815,484.036469 494.491028,483.599884 
	C493.498108,483.601654 492.505157,483.603455 491.512238,483.605225 
	C491.865204,484.039642 492.218170,484.474091 493.443390,484.909607 
z"/>
<path fill="#26C12F" opacity="1.000000" stroke="none" 
	d="
M571.923218,503.468994 
	C572.281677,504.882294 572.868713,506.751740 572.986145,508.650269 
	C573.702393,520.230225 573.450562,531.950806 575.226318,543.359192 
	C576.682495,552.714294 582.426270,560.017517 594.777771,559.184509 
	C598.206299,558.953308 601.724976,560.039062 605.150879,559.795959 
	C606.492371,559.700745 608.575623,557.751404 608.783752,556.408325 
	C609.307861,553.025635 608.957214,549.507507 608.957214,546.108398 
	C602.794495,545.302124 596.116455,547.082947 592.371521,540.945129 
	C590.663269,538.145325 589.344238,534.689331 589.164551,531.457764 
	C588.712036,523.317749 588.943604,515.135437 589.027344,506.971436 
	C589.075317,502.293396 591.386169,500.158875 596.147705,500.039825 
	C596.647278,500.027344 597.147644,500.045929 597.647339,500.035461 
	C608.047546,499.817230 606.888672,501.966644 607.088440,490.338593 
	C607.143799,487.114624 606.073975,485.846558 602.780457,485.966339 
	C599.162354,486.097931 595.527283,485.762390 591.925171,485.335602 
	C597.738037,485.040833 603.525330,485.040833 609.644165,485.040833 
	C609.644165,491.099548 609.644165,496.809296 609.644165,503.069275 
	C604.787170,503.069275 600.170715,503.168488 595.561035,503.034424 
	C592.479492,502.944855 590.997009,503.927765 591.058350,507.290375 
	C591.216309,515.942200 591.012939,524.600586 591.173889,533.252319 
	C591.299316,539.990540 594.317261,542.812195 601.104614,542.968994 
	C603.905396,543.033691 606.708862,542.979675 609.780396,542.979675 
	C609.780396,549.208313 609.780396,554.971436 609.780396,560.915710 
	C602.382874,562.279297 595.014099,563.147522 587.704895,560.643799 
	C577.717285,557.222656 571.880859,548.971680 571.877747,538.389282 
	C571.874329,526.905701 571.913818,515.422119 571.923218,503.468994 
z"/>
<path fill="#E7E4DC" opacity="1.000000" stroke="none" 
	d="
M705.293152,453.953064 
	C713.661377,454.002899 718.927124,458.149811 719.690735,464.954926 
	C720.365906,470.971924 715.670837,476.799255 709.209167,477.964264 
	C702.887695,479.104034 696.363586,475.156891 694.437378,469.027130 
	C692.359253,462.414093 696.781433,456.024994 705.293152,453.953064 
z"/>
<path fill="#26C12F" opacity="1.000000" stroke="none" 
	d="
M190.730072,448.875366 
	C189.201553,452.646027 187.654419,456.633820 185.700760,460.411346 
	C179.818787,471.784515 177.013245,483.847076 175.849197,496.592773 
	C174.212204,514.516846 178.172195,531.311523 185.576797,547.189880 
	C189.303726,555.181946 195.617538,561.954712 200.594193,569.390808 
	C201.346542,570.515076 201.184677,572.251221 201.203156,573.785645 
	C199.624847,571.655518 198.527313,569.251038 196.915955,567.262878 
	C183.161804,550.293213 174.949341,531.150879 173.823883,508.393677 
	C173.855453,505.472961 173.855453,503.340637 173.855453,501.208313 
	C173.283417,501.215912 172.711395,501.223511 172.139359,501.231110 
	C172.139359,503.226166 172.139359,505.221252 172.139343,507.216339 
	C172.726212,503.063812 173.418961,498.923065 173.881302,494.756714 
	C175.724518,478.147430 180.494812,462.619629 190.730072,448.875366 
z"/>
<path fill="#26C12F" opacity="1.000000" stroke="none" 
	d="
M323.100708,503.695343 
	C320.533203,503.665222 317.921051,503.149933 315.307404,503.142273 
	C313.703094,503.137543 312.105835,503.950409 310.489105,504.326019 
	C304.847534,505.636810 300.326263,508.049042 298.754608,514.333069 
	C297.915558,517.687805 296.295654,520.852966 294.966156,524.078125 
	C291.856506,531.621460 294.857788,540.359253 302.010376,544.283264 
	C302.666046,544.642944 303.571930,544.664185 304.352875,544.631775 
	C304.790070,544.613647 305.179108,544.032043 305.641052,543.924927 
	C314.181702,541.943604 318.916687,537.095032 320.165833,527.938171 
	C320.748810,523.664734 324.419708,519.812561 326.900116,515.958496 
	C323.524475,523.019287 320.050995,529.888489 319.807404,537.940430 
	C319.774261,539.034973 317.834656,540.428955 316.485779,541.061707 
	C311.870575,543.226562 307.125122,545.113892 301.992798,547.292419 
	C298.579895,542.912964 294.938904,538.641174 291.837341,534.008240 
	C290.947998,532.679810 291.098877,530.131226 291.669800,528.446045 
	C293.460999,523.158875 296.172424,518.147827 297.601196,512.783142 
	C299.189911,506.817810 303.081451,504.315216 308.531891,503.037750 
	C311.415070,502.361969 314.355469,501.669189 317.039093,500.468140 
	C320.520691,498.909912 322.338440,499.812073 323.100708,503.695343 
z"/>
<path fill="#26C12F" opacity="1.000000" stroke="none" 
	d="
M304.345642,598.123047 
	C308.176270,592.652466 309.730896,586.480957 309.194641,579.639282 
	C309.112610,578.592896 310.287689,577.270508 311.170105,576.353638 
	C319.236725,567.971924 327.321869,559.606201 335.548340,551.382568 
	C336.385712,550.545410 338.455994,550.020020 339.494324,550.452942 
	C347.015320,553.588501 353.658630,551.722717 358.337860,545.801147 
	C362.710449,540.267700 361.889435,533.661072 358.354828,527.562073 
	C358.195007,527.286255 358.182983,526.924683 358.097412,526.218018 
	C363.426117,530.671814 364.644043,537.754150 361.259277,544.246704 
	C357.748810,550.980286 350.272614,554.937744 343.802032,553.248352 
	C339.510895,552.127991 336.256317,552.574280 332.971405,556.261230 
	C326.778900,563.211548 319.657990,569.335388 313.474945,576.293213 
	C311.704437,578.285583 311.293060,581.947144 311.202820,584.872437 
	C311.031128,590.436401 309.018738,594.780151 304.345642,598.123047 
z"/>
<path fill="#26C12F" opacity="1.000000" stroke="none" 
	d="
M234.341843,429.093445 
	C238.865799,426.858063 243.494614,423.742157 248.583618,422.476532 
	C271.303375,416.825989 292.860077,419.966400 312.854645,432.453552 
	C313.645508,432.947510 314.218445,433.790405 314.923035,434.824493 
	C306.316742,431.508270 297.958954,426.799408 288.983917,424.392181 
	C272.128204,419.871277 255.219101,420.810760 238.920029,427.779907 
	C237.564255,428.359619 236.082047,428.643494 234.341843,429.093445 
z"/>
<path fill="#26C12F" opacity="1.000000" stroke="none" 
	d="
M334.855865,454.376770 
	C337.254883,457.174561 340.191376,460.011200 342.105316,463.421753 
	C349.355225,476.340668 351.752014,490.389496 351.049835,505.085724 
	C350.858765,509.084747 356.898773,514.520508 360.970459,514.228271 
	C361.305054,514.204224 361.592621,513.524658 361.917236,512.874451 
	C361.932465,514.005066 361.932465,515.410889 361.932465,517.058533 
	C357.951447,515.044434 354.231964,513.576782 351.045349,511.347504 
	C349.762146,510.449829 348.981354,507.836853 349.102509,506.082642 
	C350.351746,487.993225 346.159119,471.411957 335.942047,456.390411 
	C335.569427,455.842590 335.261749,455.250580 334.855865,454.376770 
z"/>
<path fill="#26C12F" opacity="1.000000" stroke="none" 
	d="
M335.827301,522.815125 
	C335.427765,523.830627 334.567078,524.851440 334.145935,526.029358 
	C332.737793,529.967957 330.437866,533.972595 330.475006,537.933228 
	C330.511108,541.784668 329.931763,544.632446 327.296814,547.247375 
	C321.038055,553.458618 314.514435,559.441772 308.698029,566.045654 
	C305.097137,570.134094 302.063843,569.645996 298.116028,566.981506 
	C298.062561,566.783447 298.406158,566.296265 298.431702,566.312439 
	C304.136627,569.917969 307.005371,565.483521 310.276367,562.169312 
	C315.517303,556.859009 320.587708,551.361084 326.084869,546.330078 
	C329.475677,543.226807 329.046661,539.524414 328.907135,535.800903 
	C328.695953,530.164978 330.830902,525.897095 335.827301,522.815125 
z"/>
<path fill="#26C12F" opacity="1.000000" stroke="none" 
	d="
M253.385406,596.960571 
	C255.586716,595.920349 258.063690,594.774597 260.653503,594.012512 
	C264.144287,592.985229 267.694275,592.093994 271.275818,591.472473 
	C272.734802,591.219299 275.159271,591.263733 275.757294,592.130188 
	C281.695557,600.733765 290.030457,601.969849 299.686462,600.654419 
	C292.376434,604.866394 282.155151,603.006104 276.813049,596.009155 
	C274.496704,592.975281 272.352539,592.788025 269.173187,593.595581 
	C264.058746,594.894592 258.869171,595.897766 253.385406,596.960571 
z"/>
<path fill="#26C12F" opacity="1.000000" stroke="none" 
	d="
M241.933411,559.408691 
	C242.850739,559.703735 244.266159,560.027222 244.679642,560.852600 
	C248.157822,567.795410 254.148178,567.064087 260.461517,566.798157 
	C267.398376,566.505981 272.384064,562.819336 277.547729,559.037048 
	C278.659760,558.222534 280.174225,557.957397 281.720734,557.655762 
	C278.020508,560.809021 274.266296,564.011414 270.113037,566.564819 
	C268.173828,567.757080 265.462585,567.693542 262.406860,568.170532 
	C260.809143,568.246216 259.905853,568.350525 259.002594,568.454834 
	C258.971100,568.706970 258.939636,568.959045 258.908142,569.211182 
	C259.676453,569.429749 260.444794,569.648254 261.213104,569.866821 
	C260.035034,569.567383 258.793213,568.860779 257.689148,569.033752 
	C249.793976,570.270569 245.263000,566.049561 241.933411,559.408691 
z"/>
<path fill="#26C12F" opacity="1.000000" stroke="none" 
	d="
M187.103394,522.595093 
	C186.084335,516.065552 184.040924,509.109039 184.235718,502.215729 
	C184.548843,491.135345 186.720581,480.198822 192.869202,470.225464 
	C191.476608,475.804108 189.684418,481.531097 188.089920,487.312592 
	C184.909134,498.845825 185.908356,510.524231 187.103394,522.595093 
z"/>
<path fill="#26C12F" opacity="1.000000" stroke="none" 
	d="
M524.636047,540.887207 
	C523.773926,541.896545 522.683411,543.745361 521.399353,543.891357 
	C516.171082,544.485779 510.879547,544.765991 505.621002,544.664185 
	C504.438293,544.641296 503.294403,542.612854 502.098877,541.130005 
	C509.455902,543.959045 516.873047,544.102417 524.636047,540.887207 
z"/>
<path fill="#26C12F" opacity="1.000000" stroke="none" 
	d="
M180.643494,590.244385 
	C179.431595,592.190674 177.715164,594.114685 176.403458,596.283447 
	C172.572922,602.616882 174.614639,608.562195 177.918121,614.730896 
	C169.569534,607.496948 170.571564,597.135559 180.643494,590.244385 
z"/>
<path fill="#26C12F" opacity="1.000000" stroke="none" 
	d="
M282.553345,410.017487 
	C282.389069,410.367249 281.823944,410.897247 281.247162,410.910309 
	C269.365265,411.178986 257.482025,411.388794 245.327667,411.353821 
	C257.335297,407.967194 269.702209,407.694855 282.553345,410.017487 
z"/>
<path fill="#26C12F" opacity="1.000000" stroke="none" 
	d="
M212.344360,444.111023 
	C214.317459,441.947845 216.280487,439.352112 218.817902,437.577820 
	C222.797562,434.795013 227.164932,432.566650 231.742554,430.079071 
	C225.608597,434.718658 219.100220,439.382690 212.344360,444.111023 
z"/>
<path fill="#26C12F" opacity="1.000000" stroke="none" 
	d="
M181.844818,617.473999 
	C185.159698,617.201172 188.682281,617.856750 191.785629,616.997803 
	C194.904648,616.134460 197.606293,613.763245 200.849518,611.985840 
	C196.867096,618.981873 188.693954,621.441223 181.844818,617.473999 
z"/>
<path fill="#26C12F" opacity="1.000000" stroke="none" 
	d="
M570.972046,485.063019 
	C568.250244,485.384094 565.530640,485.936066 562.806091,485.961426 
	C560.072937,485.986908 558.872620,486.923950 558.994812,489.734344 
	C559.166992,493.697449 559.133118,497.669495 559.224976,502.162842 
	C559.262451,502.687988 559.187256,502.703156 558.914062,502.484070 
	C558.451843,502.176270 558.262756,502.087555 558.073730,501.998810 
	C558.073730,496.562286 558.073730,491.125763 558.073730,484.963837 
	C561.729431,484.963837 565.443237,484.963837 569.627686,485.004272 
	C570.098450,485.044739 570.495789,485.086304 570.716919,485.041321 
	C570.938110,484.996307 570.972046,485.063019 570.972046,485.063019 
z"/>
<path fill="#26C12F" opacity="1.000000" stroke="none" 
	d="
M266.524597,539.001587 
	C262.489929,539.197266 258.019745,539.356201 253.253571,539.218994 
	C257.334747,538.936890 261.711914,538.950867 266.524597,539.001587 
z"/>
<path fill="#26C12F" opacity="1.000000" stroke="none" 
	d="
M561.023926,502.582794 
	C564.332825,502.391632 568.051880,502.356079 571.867188,502.711060 
	C568.453613,502.980560 564.943787,502.859467 561.023926,502.582794 
z"/>
<path fill="#26C12F" opacity="1.000000" stroke="none" 
	d="
M280.635010,538.178345 
	C277.504913,538.686279 274.078613,539.148193 270.346893,539.351318 
	C271.660309,539.024048 273.279144,538.955688 275.734741,538.897461 
	C276.857666,538.879517 277.143799,538.851440 277.429932,538.823242 
	C278.399536,538.592957 279.369171,538.362671 280.635010,538.178345 
z"/>
<path fill="#26C12F" opacity="1.000000" stroke="none" 
	d="
M205.037170,452.219360 
	C205.715225,450.940277 206.612228,449.512177 207.835770,448.085938 
	C207.193573,449.415314 206.224838,450.742828 205.037170,452.219360 
z"/>
<path fill="#26C12F" opacity="1.000000" stroke="none" 
	d="
M193.536194,470.089294 
	C193.970062,468.558533 194.713989,466.924286 195.790192,465.157593 
	C195.363724,466.678711 194.604965,468.332275 193.536194,470.089294 
z"/>
<path fill="#26C12F" opacity="1.000000" stroke="none" 
	d="
M189.470093,529.658630 
	C188.711716,527.867554 187.866165,525.791382 187.053299,523.300415 
	C187.851639,525.048279 188.617294,527.210876 189.470093,529.658630 
z"/>
<path fill="#26C12F" opacity="1.000000" stroke="none" 
	d="
M197.335754,463.004700 
	C197.772186,461.800995 198.460648,460.467804 199.495422,459.087524 
	C199.090424,460.318726 198.339111,461.596954 197.335754,463.004700 
z"/>
<path fill="#26C12F" opacity="1.000000" stroke="none" 
	d="
M201.322083,457.007874 
	C201.895142,456.040466 202.708115,454.906647 203.737122,453.607635 
	C203.156113,454.575439 202.359055,455.708466 201.322083,457.007874 
z"/>
<path fill="#26C12F" opacity="1.000000" stroke="none" 
	d="
M357.054871,524.693237 
	C355.702240,524.041809 354.263123,523.168640 352.983978,522.094788 
	C354.418762,522.753235 355.693542,523.612305 357.054871,524.693237 
z"/>
<path fill="#26C12F" opacity="1.000000" stroke="none" 
	d="
M325.079285,506.621582 
	C324.427490,506.063843 323.750122,505.273987 323.077789,504.170532 
	C323.739807,504.701111 324.396790,505.545258 325.079285,506.621582 
z"/>
<path fill="#26C12F" opacity="1.000000" stroke="none" 
	d="
M320.569183,439.378479 
	C321.572418,439.863770 322.732544,440.654694 323.903931,441.832886 
	C322.852142,441.374847 321.789124,440.529510 320.569183,439.378479 
z"/>
<path fill="#26C12F" opacity="1.000000" stroke="none" 
	d="
M178.084930,615.360413 
	C179.134384,615.559509 180.367874,616.051086 181.781525,616.827576 
	C180.730774,616.625977 179.499863,616.139465 178.084930,615.360413 
z"/>
<path fill="#26C12F" opacity="1.000000" stroke="none" 
	d="
M331.863281,450.335815 
	C332.328430,450.567108 332.904175,451.066803 333.269226,451.757019 
	C332.696960,451.499786 332.335419,451.052032 331.863281,450.335815 
z"/>
<path fill="#26C12F" opacity="1.000000" stroke="none" 
	d="
M209.351456,447.017517 
	C209.537720,446.463684 209.999542,445.791260 210.801712,445.100098 
	C210.637039,445.687256 210.132034,446.293091 209.351456,447.017517 
z"/>
<path fill="#26C12F" opacity="1.000000" stroke="none" 
	d="
M232.315002,430.060669 
	C232.499191,429.766357 232.985718,429.426514 233.785522,429.068817 
	C233.604965,429.372345 233.111160,429.693726 232.315002,430.060669 
z"/>
<path fill="#26C12F" opacity="1.000000" stroke="none" 
	d="
M327.732758,445.381439 
	C328.197754,445.538971 328.558044,446.009918 328.919861,446.797302 
	C328.490295,446.640778 328.059174,446.167816 327.732758,445.381439 
z"/>
<path fill="#26C12F" opacity="1.000000" stroke="none" 
	d="
M325.002502,443.351257 
	C325.413025,443.243896 326.010437,443.415802 326.781006,443.857208 
	C326.365936,443.961334 325.777618,443.795929 325.002502,443.351257 
z"/>
<path fill="#26C12F" opacity="1.000000" stroke="none" 
	d="
M196.306839,464.924255 
	C196.234970,464.518005 196.412994,463.930908 196.860229,463.178711 
	C196.938507,463.590210 196.747620,464.166809 196.306839,464.924255 
z"/>
<path fill="#26C12F" opacity="1.000000" stroke="none" 
	d="
M526.594849,539.627930 
	C526.442627,540.153931 525.976746,540.535339 525.189209,540.914917 
	C525.338745,540.436523 525.809937,539.959900 526.594849,539.627930 
z"/>
<path fill="#26C12F" opacity="1.000000" stroke="none" 
	d="
M328.992157,447.280762 
	C329.176544,447.253601 329.452057,447.487213 329.828705,447.976013 
	C329.647644,448.001343 329.365479,447.771454 328.992157,447.280762 
z"/>
<path fill="#26C12F" opacity="1.000000" stroke="none" 
	d="
M303.112793,599.111450 
	C303.067719,598.910034 303.316284,598.602539 303.825867,598.156616 
	C303.860077,598.347290 303.633270,598.676392 303.112793,599.111450 
z"/>
<path fill="#26A62E" opacity="1.000000" stroke="none" 
	d="
M548.252319,560.007996 
	C548.084412,559.749146 548.236755,559.498718 548.608826,559.138672 
	C548.694397,559.328491 548.609070,559.657654 548.252319,560.007996 
z"/>
<path fill="#26C12F" opacity="1.000000" stroke="none" 
	d="
M326.823486,444.411987 
	C327.160797,444.260040 327.444000,444.448608 327.833191,444.874268 
	C327.549255,444.991760 327.159302,444.872131 326.823486,444.411987 
z"/>
<path fill="#26C12F" opacity="1.000000" stroke="none" 
	d="
M211.290863,445.028473 
	C211.228638,444.827301 211.430054,444.542572 211.869843,444.141174 
	C211.923630,444.331299 211.739059,444.638123 211.290863,445.028473 
z"/>
<path fill="#26A62E" opacity="1.000000" stroke="none" 
	d="
M277.228638,538.700134 
	C277.143799,538.851440 276.857666,538.879517 276.139343,538.888367 
	C276.147217,538.771729 276.587280,538.674377 277.228638,538.700134 
z"/>
<path fill="#26C12F" opacity="1.000000" stroke="none" 
	d="
M358.028931,525.706909 
	C357.822601,525.770935 357.537964,525.568298 357.139771,525.124756 
	C357.334351,525.069275 357.642487,525.254822 358.028931,525.706909 
z"/>
<path fill="#26A62E" opacity="1.000000" stroke="none" 
	d="
M558.079407,502.213104 
	C558.262756,502.087555 558.451843,502.176270 558.877075,502.473816 
	C558.770569,502.597595 558.427856,502.512512 558.079407,502.213104 
z"/>
<path fill="#26C12F" opacity="1.000000" stroke="none" 
	d="
M208.285370,448.021698 
	C208.226837,447.824371 208.430115,447.541351 208.870697,447.140259 
	C208.921082,447.326813 208.734146,447.631409 208.285370,448.021698 
z"/>
<path fill="#000000" opacity="1.000000" stroke="none" 
	d="
M570.916138,485.026733 
	C570.562439,480.286560 570.230652,475.515961 569.898804,470.745361 
	C570.488586,470.716339 571.078369,470.687317 571.668152,470.658264 
	C571.668152,475.290100 571.668152,479.921906 571.320068,484.808350 
	C570.972046,485.063019 570.938110,484.996307 570.916138,485.026733 
z"/>
<path fill="#26A62E" opacity="1.000000" stroke="none" 
	d="
M425.028625,500.903503 
	C426.482605,501.569336 427.902405,502.858185 429.352386,502.893158 
	C437.601990,503.092010 445.858948,502.963928 454.113159,503.000458 
	C462.806763,503.038910 465.713898,506.680878 462.698029,514.842346 
	C462.077942,516.520508 458.155212,517.722839 455.693054,517.839355 
	C447.593903,518.222412 439.466370,518.009583 431.349762,518.018372 
	C424.321106,518.026001 424.032104,518.015076 423.872650,525.053528 
	C423.622192,536.109375 423.806152,547.174988 423.806152,558.937622 
	C418.756165,558.937622 414.121552,559.234985 409.580994,558.713379 
	C408.541107,558.593872 407.082306,555.658875 407.071625,554.011536 
	C406.912140,529.365540 406.963531,504.718231 406.964966,480.071198 
	C406.965393,472.707642 406.965027,465.344055 406.965027,457.960938 
	C422.739532,457.960938 438.111542,458.001099 453.483063,457.927521 
	C456.618439,457.912537 459.751923,457.471497 462.885956,457.223145 
	C463.382782,457.183777 463.883026,457.053680 464.373260,457.087433 
	C466.630310,457.242737 468.517761,464.794403 467.773041,470.797668 
	C467.438324,473.495697 465.838562,473.308441 463.496735,473.251709 
	C451.888489,472.970490 440.266846,472.932739 428.660889,473.233185 
	C427.074707,473.274292 424.259399,475.647949 424.210480,477.020020 
	C423.932831,484.802246 424.323853,492.608337 424.793732,500.692383 
	C425.100159,500.978455 425.008392,500.947510 425.028625,500.903503 
z"/>
<path fill="#000000" opacity="1.000000" stroke="none" 
	d="
M420.880554,560.081848 
	C421.562836,560.670410 421.802063,561.244324 422.041290,561.818237 
	C420.508545,561.818237 418.975800,561.818237 417.443054,561.818237 
	C417.379303,561.422668 417.315552,561.027039 417.251801,560.631470 
	C418.313690,560.443359 419.375580,560.255310 420.880554,560.081848 
z"/>
<path fill="#000000" opacity="1.000000" stroke="none" 
	d="
M493.007263,484.909058 
	C492.218170,484.474091 491.865204,484.039642 491.512238,483.605225 
	C492.505157,483.603455 493.498108,483.601654 494.491028,483.599884 
	C494.141815,484.036469 493.792603,484.473053 493.007263,484.909058 
z"/>
<path fill="#000000" opacity="1.000000" stroke="none" 
	d="
M172.475082,507.517761 
	C172.139359,505.221252 172.139359,503.226166 172.139359,501.231110 
	C172.711395,501.223511 173.283417,501.215912 173.855453,501.208313 
	C173.855453,503.340637 173.855453,505.472961 173.697662,507.978027 
	C173.296875,508.173553 173.053848,507.996368 172.475082,507.517761 
z"/>
<path fill="#000000" opacity="1.000000" stroke="none" 
	d="
M261.516846,569.526123 
	C260.444794,569.648254 259.676453,569.429749 258.908142,569.211182 
	C258.939636,568.959045 258.971100,568.706970 259.002594,568.454834 
	C259.905853,568.350525 260.809143,568.246216 262.030396,568.291260 
	C262.172485,568.688843 261.996521,568.937134 261.516846,569.526123 
z"/>
</svg>