<?xml version="1.0" standalone="no"?>
<!DOCTYPE svg PUBLIC "-//W3C//DTD SVG 20010904//EN"
 "http://www.w3.org/TR/2001/REC-SVG-20010904/DTD/svg10.dtd">
<svg version="1.0" xmlns="http://www.w3.org/2000/svg"
 width="1024.000000pt" height="1024.000000pt" viewBox="0 0 1024.000000 1024.000000"
 preserveAspectRatio="xMidYMid meet">

<g transform="translate(0.000000,1024.000000) scale(0.100000,-0.100000)"
fill="#000000" stroke="none">
<path d="M0 5118 l0 -5118 5120 0 5120 0 0 5120 0 5120 -5120 -2 -5120 -2 0
-5118z m3052 4085 c13 -11 18 -30 18 -64 0 -39 -4 -51 -26 -68 -35 -27 -59
-26 -89 4 -18 18 -25 35 -25 65 0 35 4 43 33 60 39 24 65 25 89 3z m2162 -32
c23 -10 64 -36 93 -59 93 -75 144 -218 122 -351 -5 -35 -12 -68 -15 -73 -3 -4
3 -8 14 -8 11 0 46 -18 78 -41 33 -22 96 -65 141 -95 l83 -55 43 25 c53 31
125 35 177 8 44 -22 88 -85 98 -141 l7 -44 110 -22 c61 -13 162 -37 225 -53
107 -28 115 -32 118 -56 2 -18 -1 -26 -12 -26 -8 0 -113 25 -232 55 l-217 55
-35 -40 c-19 -23 -55 -51 -81 -64 l-46 -24 8 -231 c8 -209 7 -234 -8 -257 -17
-26 -32 -28 -92 -9 -17 6 -35 -7 -99 -69 -42 -42 -82 -76 -88 -75 -6 0 -48 12
-93 27 l-82 28 43 44 c28 29 62 52 95 63 36 13 74 39 129 91 43 40 84 75 91
77 17 6 27 67 36 205 l7 111 -29 6 c-44 10 -90 43 -108 78 -25 47 -30 127 -12
172 13 29 13 37 3 37 -15 0 -239 142 -274 174 l-23 20 -47 -51 c-50 -54 -106
-87 -165 -98 l-37 -7 -2 -457 -3 -456 -61 -3 -62 -3 -7 63 c-4 35 -6 243 -4
463 l4 399 -30 6 c-44 10 -74 28 -131 81 l-51 49 -73 -55 c-40 -30 -102 -73
-137 -96 -53 -35 -63 -46 -58 -63 16 -57 17 -89 1 -131 -17 -44 -68 -97 -113
-118 -13 -6 -22 -16 -19 -24 3 -7 6 -84 7 -171 1 -154 2 -156 18 -120 9 22 43
60 83 92 51 42 75 72 104 126 45 87 81 115 147 115 42 0 52 -4 78 -33 49 -55
36 -135 -34 -209 -23 -25 -40 -33 -66 -34 -20 -1 -46 -4 -57 -7 -36 -11 -215
-212 -294 -330 -73 -109 -75 -110 -150 -145 -278 -130 -343 -163 -411 -208
l-77 -50 -51 38 c-28 21 -51 43 -51 49 0 15 65 67 175 140 91 60 142 84 182
84 12 0 23 6 25 12 3 7 18 11 36 10 27 -2 41 6 90 55 31 32 85 90 118 130 l62
72 -5 198 c-3 142 -7 199 -16 201 -66 17 -98 37 -118 70 -13 20 -23 38 -24 40
-2 1 -36 -8 -76 -22 -41 -14 -112 -34 -159 -44 -47 -11 -159 -39 -249 -62
-112 -29 -166 -39 -173 -32 -26 26 104 76 387 147 276 69 255 61 255 98 1 47
31 107 74 145 34 29 42 32 104 32 53 0 76 -5 110 -25 l43 -24 44 32 c24 18 80
59 125 92 44 32 84 62 89 65 5 3 0 32 -11 65 -62 184 68 404 264 445 60 13
173 3 222 -19z m-2130 -107 c3 -8 2 -12 -4 -9 -6 3 -10 10 -10 16 0 14 7 11
14 -7z m47 -51 c13 -16 12 -17 -3 -4 -10 7 -18 15 -18 17 0 8 8 3 21 -13z
m3204 -499 c10 -10 15 -29 13 -48 -2 -26 -8 -32 -32 -34 -33 -4 -45 5 -51 38
-10 50 35 79 70 44z m-4744 -139 c42 -27 72 -72 90 -135 7 -25 18 -48 24 -52
7 -5 6 -8 -2 -8 -6 0 -16 -15 -23 -34 -14 -44 -107 -131 -148 -141 -29 -6 -32
-10 -34 -48 l-1 -42 -4 41 c-4 38 -6 41 -48 52 -90 24 -157 129 -140 219 9 50
27 82 68 121 67 65 146 74 218 27z m5176 -17 c35 -31 73 -115 73 -159 0 -72
-86 -149 -168 -149 -36 0 -98 39 -122 76 -39 57 -22 172 32 222 52 47 140 52
185 10z m-3973 -72 c62 -31 104 -74 143 -149 23 -43 28 -65 28 -127 0 -64 -5
-84 -30 -135 -16 -33 -31 -63 -33 -67 -2 -5 2 -8 8 -8 6 0 102 -87 213 -194
111 -106 221 -210 245 -231 l42 -37 0 29 c0 79 63 145 270 285 58 39 121 86
140 104 46 42 106 75 125 68 17 -7 19 -35 5 -84 -13 -45 -98 -132 -122 -124
-19 6 -101 -54 -233 -171 -44 -39 -97 -83 -118 -99 -21 -15 -37 -32 -35 -38 2
-6 45 -51 96 -102 l93 -91 -50 -53 -49 -52 -209 202 c-293 284 -359 352 -437
446 -51 62 -73 81 -85 76 -48 -20 -121 -34 -154 -29 -60 9 -160 58 -190 95
-58 68 -72 108 -72 205 0 80 3 96 30 148 34 69 109 141 162 156 61 17 156 7
217 -23z m2615 8 c39 -33 41 -74 6 -109 -31 -32 -46 -31 -84 1 -46 38 -40 91
14 122 28 16 29 15 64 -14z m2179 -24 c107 -54 167 -143 166 -250 -1 -129 -54
-218 -160 -267 -48 -22 -65 -24 -127 -20 -40 3 -81 8 -92 12 -17 5 -60 -32
-245 -217 -198 -197 -378 -392 -465 -500 l-29 -36 -52 46 -53 47 17 26 c21 33
658 679 691 702 18 12 21 19 14 29 -25 30 -45 131 -42 207 4 66 8 83 36 126
77 118 216 157 341 95z m-534 -123 l20 -27 -21 -27 c-38 -53 -93 -36 -93 29 0
20 8 32 28 42 33 19 41 17 66 -17z m-1468 -56 c58 -35 79 -116 48 -189 -33
-81 -100 -120 -171 -100 -34 9 -37 8 -62 -24 -13 -18 -48 -56 -77 -84 l-52
-52 -7 82 c-3 44 -8 88 -11 97 -2 9 9 33 26 54 17 22 47 70 67 107 59 113 158
158 239 109z m2620 -35 c24 -24 34 -43 34 -64 0 -71 -28 -106 -220 -276 -129
-114 -195 -175 -495 -462 -310 -297 -509 -478 -562 -514 l-48 -31 -15 22 c-8
11 -35 43 -59 70 l-43 49 93 91 c52 51 184 173 294 272 347 313 403 366 649
615 284 285 303 297 372 228z m-2048 2 c17 -17 15 -94 -3 -132 -15 -32 -60
-66 -87 -66 -25 0 -88 50 -88 71 0 34 39 99 73 119 36 22 87 26 105 8z m390
-43 c17 -24 32 -52 32 -61 0 -10 -18 -42 -41 -71 -57 -76 -469 -489 -496 -497
-14 -5 -40 2 -75 20 -29 15 -75 35 -103 45 -31 11 -41 18 -27 19 22 0 81 54
412 375 151 147 232 215 254 215 6 -1 26 -21 44 -45z m-2988 -53 c0 -15 -110
-132 -124 -132 -15 0 -3 25 31 68 62 79 93 100 93 64z m3456 -34 c12 -11 24
-31 27 -45 12 -64 -4 -84 -324 -404 l-311 -310 -35 31 c-19 17 -59 43 -89 58
-30 14 -54 29 -54 33 0 3 64 69 142 145 79 77 226 221 329 322 118 116 196
186 215 191 38 10 74 3 100 -21z m-2862 -34 c58 -59 18 -144 -68 -144 -36 0
-48 5 -65 26 -70 89 53 197 133 118z m-478 -25 c19 -21 19 -21 -51 -85 -107
-99 -155 -137 -162 -131 -7 8 16 42 101 150 39 48 75 87 81 87 7 0 20 -9 31
-21z m-2169 -31 c-3 -8 -6 -5 -6 6 -1 11 2 17 5 13 3 -3 4 -12 1 -19z m3353
-28 c11 -6 22 -26 26 -45 8 -45 -17 -85 -97 -155 -59 -51 -65 -54 -148 -66
-47 -8 -99 -17 -115 -20 -29 -7 -28 -6 22 54 28 34 94 102 147 152 98 92 121
103 165 80z m4260 -105 c0 -22 -48 -74 -87 -94 -35 -18 -70 -13 -87 11 -26 36
-19 53 45 113 l62 56 33 -32 c19 -18 34 -42 34 -54z m-6629 -24 c-22 -22 -64
-75 -94 -118 -56 -79 -113 -141 -122 -132 -6 7 131 209 180 266 31 36 40 41
56 33 17 -10 16 -13 -20 -49z m569 -244 c0 -1 -31 -34 -70 -72 -38 -38 -70
-64 -70 -56 0 17 110 131 127 131 7 0 13 -1 13 -3z m-731 -51 c51 -49 66 -148
32 -214 -33 -64 -74 -95 -124 -95 -176 3 -227 228 -73 324 46 29 126 22 165
-15z m3058 9 c167 -23 440 -106 606 -184 259 -122 455 -258 642 -446 319 -319
505 -654 604 -1087 41 -182 54 -301 55 -513 1 -404 -99 -747 -321 -1094 -69
-107 -167 -229 -289 -358 -277 -293 -636 -504 -1049 -616 -210 -58 -252 -62
-565 -62 -257 0 -295 3 -387 23 -254 55 -475 137 -703 259 -351 188 -668 492
-852 818 -89 157 -138 263 -177 386 -54 168 -57 183 -81 347 -48 338 -14 711
95 1049 117 362 307 656 594 916 110 101 346 266 478 335 233 121 600 225 868
246 89 7 377 -5 482 -19z m2600 -9 c4 -4 1 -11 -7 -16 -10 -7 -11 -10 -2 -10
28 0 11 -47 -28 -79 -34 -27 -40 -37 -40 -71 0 -21 5 -42 11 -45 6 -4 40 -4
76 0 60 6 66 9 78 38 17 38 20 23 4 -21 -10 -30 -8 -34 63 -112 40 -45 88 -93
107 -107 32 -25 34 -25 44 -7 21 38 92 98 152 126 67 31 175 49 221 36 16 -4
42 -11 59 -14 46 -8 86 -31 135 -75 32 -29 40 -43 31 -48 -7 -5 -13 -24 -13
-43 l0 -35 -39 41 c-46 49 -59 40 -59 -42 0 -97 -75 -198 -162 -217 -47 -11
-116 14 -185 66 -62 47 -63 48 -69 24 -3 -13 -1 -48 6 -79 9 -44 21 -67 60
-109 98 -108 210 -128 352 -62 41 19 54 32 80 83 18 34 34 59 38 57 6 -4 4 84
-4 155 -2 25 -2 36 1 25 3 -11 11 -24 19 -28 10 -6 11 -14 3 -33 -9 -26 -8
-26 26 -22 31 4 35 1 35 -20 0 -13 -4 -20 -10 -17 -12 8 -13 -5 -1 -25 6 -8 7
-18 4 -24 -4 -5 -7 -22 -8 -37 -4 -46 -52 -116 -115 -169 -98 -81 -204 -100
-336 -59 -80 25 -121 44 -150 71 -21 19 -22 19 -100 -30 -83 -51 -546 -327
-719 -427 -55 -32 -117 -69 -137 -82 -21 -12 -42 -23 -46 -23 -5 0 -19 26 -31
57 -21 54 -21 57 -4 74 10 10 101 69 203 132 296 184 382 240 413 272 17 17
26 24 22 16 -5 -9 -3 -12 6 -9 8 3 13 10 12 16 -1 5 3 9 10 8 7 0 70 33 140
74 98 58 125 78 120 90 -13 25 -8 203 6 228 11 21 10 26 -11 40 -47 33 -130
117 -160 163 l-30 47 -41 -24 c-81 -46 -160 -24 -218 60 -22 33 -25 47 -21 85
11 108 58 155 149 148 29 -2 56 -7 60 -11z m-5109 -109 c53 -49 6 -157 -68
-157 -41 0 -90 47 -90 87 0 37 25 72 64 89 36 15 62 10 94 -19z m341 -79 c34
-35 56 -90 44 -111 -4 -8 -55 -58 -113 -112 -58 -54 -116 -113 -130 -131 -23
-31 -244 -246 -474 -462 -54 -51 -97 -94 -95 -96 14 -13 134 -86 141 -86 4 0
8 5 8 10 0 14 41 59 236 259 88 92 195 204 237 251 98 111 241 250 256 250 6
0 16 -10 21 -22 6 -13 15 -30 22 -40 10 -14 3 -25 -41 -75 -175 -195 -306
-378 -400 -559 l-41 -80 -113 0 c-61 1 -117 5 -124 9 -6 4 -13 2 -15 -5 -4
-11 175 -138 194 -138 4 0 8 -6 8 -14 0 -23 -42 -116 -53 -116 -5 0 -64 30
-131 67 -66 36 -164 90 -216 119 -107 59 -209 118 -290 170 -30 18 -57 34 -61
34 -3 0 -41 -60 -83 -133 l-76 -134 16 -38 c32 -78 14 -170 -41 -213 l-26 -21
27 -43 c21 -32 29 -39 33 -26 3 8 35 43 71 75 36 33 89 83 118 111 29 27 58
49 65 48 44 -9 74 -21 89 -33 15 -14 19 -13 33 1 9 9 21 16 27 16 13 0 -99
-120 -255 -271 l-108 -106 14 -34 c68 -157 87 -188 114 -195 15 -3 33 -7 39
-9 16 -5 124 91 241 214 112 119 236 231 254 231 6 0 13 -9 16 -20 6 -22 44
-37 64 -24 14 8 7 -38 -17 -124 -13 -47 -29 -67 -152 -191 -81 -81 -155 -147
-182 -160 l-45 -23 178 6 178 7 -3 -78 -3 -78 -253 -3 -254 -2 -35 -27 c-68
-52 -179 -29 -234 48 -50 70 -13 189 69 227 20 9 38 17 40 18 2 1 -14 40 -35
87 l-39 85 -74 -64 c-94 -79 -127 -95 -146 -69 -19 25 -18 75 2 105 27 41 137
150 151 150 17 0 17 5 -8 77 -22 62 -34 73 -85 73 -21 0 -24 -5 -144 -265 -38
-84 -73 -135 -92 -135 -4 0 -8 5 -8 10 0 17 89 219 137 313 l46 88 -26 27
c-78 84 -76 190 5 258 l35 29 -42 97 c-23 53 -55 116 -71 140 l-29 43 -85 0
c-74 0 -94 5 -150 31 -148 70 -219 184 -222 354 0 64 4 87 27 138 33 75 102
143 183 180 50 24 69 27 162 27 93 0 112 -3 161 -26 68 -32 132 -88 165 -145
l25 -42 83 86 c46 48 97 103 114 122 31 36 49 37 37 1 -3 -12 -55 -71 -114
-132 l-107 -111 10 -64 c6 -43 6 -83 -1 -122 -6 -31 -8 -58 -4 -60 3 -1 60
-34 125 -73 l120 -71 20 29 c12 15 37 46 57 68 42 46 127 149 219 265 54 69
307 310 325 310 3 0 5 -8 5 -17 0 -9 -74 -91 -165 -182 -90 -91 -197 -209
-237 -262 -40 -54 -100 -127 -132 -164 -48 -53 -57 -68 -45 -76 56 -37 128
-79 135 -79 5 0 74 65 152 145 131 132 197 194 410 383 39 34 99 97 133 140
78 96 170 192 185 192 6 0 26 -14 43 -32z m4841 -2 c0 -3 -4 -8 -10 -11 -5 -3
-10 -1 -10 4 0 6 5 11 10 11 6 0 10 -2 10 -4z m-560 -171 c6 -14 7 -59 4 -100
l-5 -75 -67 -62 c-37 -34 -124 -120 -194 -190 -69 -70 -131 -128 -136 -128 -7
0 -75 98 -90 130 -3 8 399 408 434 431 38 25 43 24 54 -6z m-5325 -139 c0 -52
-63 -62 -73 -12 -7 33 6 47 40 44 29 -3 33 -7 33 -32z m5543 22 c7 -7 12 -24
12 -38 0 -50 -51 -68 -85 -30 -15 17 -16 24 -6 46 7 17 17 24 26 20 8 -3 15
-1 15 4 0 14 24 12 38 -2z m227 -54 c26 -11 48 -62 40 -101 -7 -41 -59 -94
-269 -278 -132 -116 -193 -160 -171 -125 4 7 -1 14 -15 17 -13 3 -19 11 -16
20 3 8 1 11 -4 8 -6 -3 -10 4 -10 16 0 18 -3 20 -12 11 -15 -15 -28 -15 -28
-1 0 5 5 7 12 3 7 -4 8 -3 4 4 -10 17 -23 15 -46 -8 -11 -11 -25 -20 -32 -20
-14 0 134 154 322 335 30 29 65 56 78 59 13 5 20 12 15 19 -4 7 1 6 10 -2 11
-9 17 -9 17 -2 0 37 59 62 105 45z m1022 -46 c-3 -7 -5 -2 -5 12 0 14 2 19 5
13 2 -7 2 -19 0 -25z m-1529 -230 c2 -14 -5 -31 -17 -42 -19 -17 -22 -17 -45
-3 -18 12 -23 22 -19 39 8 29 20 37 52 34 19 -2 27 -10 29 -28z m904 -525 c28
-25 38 -48 44 -97 8 -65 -15 -112 -63 -125 -21 -6 -49 -11 -63 -11 -38 0 -108
49 -115 80 -10 44 11 119 41 152 27 28 33 30 83 25 31 -4 61 -13 73 -24z m351
-40 c-7 -2 -19 -2 -25 0 -7 3 -2 5 12 5 14 0 19 -2 13 -5z m59 -30 c24 -23 28
-35 28 -79 0 -29 -3 -60 -6 -69 -12 -29 -94 -60 -94 -35 0 6 9 10 20 10 11 0
20 5 20 11 0 5 3 8 8 5 4 -2 14 1 22 7 17 13 28 103 12 93 -10 -6 -28 30 -24
47 1 4 -2 7 -7 7 -5 0 -11 7 -15 15 -8 22 5 18 36 -12z m-148 -20 c-4 -15 -13
-34 -21 -41 -19 -20 -18 17 3 46 20 29 26 28 18 -5z m-6047 -79 c24 -18 33
-33 31 -47 -3 -19 -11 -22 -50 -25 l-48 -3 0 44 c0 66 13 72 67 31z m6078 -56
c5 4 5 1 1 -6 -6 -10 -11 -10 -22 -1 -8 6 -14 14 -14 16 0 3 6 0 13 -6 8 -6
18 -7 22 -3z m-7223 -45 c42 -40 34 -94 -16 -107 -33 -8 -51 0 -65 30 -16 35
-14 47 10 78 26 33 36 33 71 -1z m970 -33 c26 -26 30 -36 25 -66 -11 -64 -79
-127 -121 -111 -22 9 -48 66 -42 91 6 26 83 116 98 116 5 0 23 -14 40 -30z
m5488 -55 c-15 -9 -19 -15 -10 -15 9 0 4 -7 -12 -15 -20 -12 -25 -20 -20 -37
5 -18 7 -19 10 -6 2 9 12 20 23 23 10 4 19 12 19 20 0 7 8 12 18 10 9 -1 23 2
30 8 8 6 17 5 29 -4 14 -12 16 -12 9 1 -4 8 0 6 8 -4 20 -24 23 -94 4 -79 -19
15 -96 25 -103 13 -3 -5 -2 -10 3 -10 5 0 9 -17 10 -37 2 -36 17 -57 36 -46 5
3 6 1 2 -5 -4 -6 -13 -9 -21 -5 -8 3 -15 0 -15 -6 0 -13 -39 -15 -57 -3 -7 4
-19 27 -28 51 -12 34 -13 52 -5 82 11 39 51 79 79 79 11 -1 8 -5 -9 -15z m592
-112 c10 -9 18 -23 18 -31 0 -23 -30 -52 -55 -52 -43 0 -60 47 -28 82 20 22
41 23 65 1z m374 -182 c54 -25 108 -79 141 -144 51 -100 26 -247 -55 -319 -68
-59 -186 -93 -249 -71 l-28 10 -94 -188 -93 -189 26 -21 c89 -70 86 -225 -6
-291 -27 -18 -46 -23 -101 -23 l-68 -1 -91 -124 c-215 -294 -245 -338 -236
-344 2 -1 66 -42 143 -90 77 -48 147 -92 157 -98 13 -10 23 -5 56 24 64 58
139 81 262 82 87 0 113 -3 153 -21 69 -32 149 -112 188 -191 32 -63 34 -73 34
-172 0 -96 -3 -110 -29 -165 -80 -163 -255 -252 -416 -211 -136 35 -236 113
-288 224 -24 51 -27 70 -28 172 l-1 115 -79 49 c-43 28 -116 74 -162 103 -45
29 -87 53 -92 53 -4 0 -47 -51 -94 -112 -48 -62 -113 -147 -146 -189 l-61 -75
25 -45 c46 -85 42 -166 -11 -230 -31 -37 -68 -54 -136 -64 -41 -6 -53 -4 -87
19 -22 14 -42 26 -45 26 -7 0 -248 -215 -397 -355 -94 -87 -108 -104 -108
-132 0 -50 -29 -73 -92 -73 -52 0 -55 -2 -137 -76 -56 -51 -87 -72 -93 -66
-22 22 4 62 76 121 67 55 74 64 80 105 10 66 69 106 114 78 8 -6 26 4 51 27
132 124 290 267 369 336 75 66 90 84 85 100 -4 11 -8 50 -8 87 0 60 -3 70 -30
98 -16 18 -42 38 -56 46 -25 12 -27 12 -22 -4 3 -13 -41 -61 -159 -173 -89
-84 -250 -239 -358 -343 -255 -247 -244 -239 -328 -237 -90 2 -113 -14 -32
-22 94 -10 137 -41 184 -134 38 -75 7 -172 -72 -228 -40 -27 -51 -30 -121 -30
-69 0 -82 3 -118 28 l-41 28 -43 -29 c-24 -16 -97 -64 -163 -106 -100 -65
-239 -166 -396 -286 -19 -15 -45 -32 -56 -38 -20 -11 -21 -13 -8 -64 41 -155
-18 -331 -137 -418 -69 -50 -143 -73 -239 -74 -73 -1 -93 3 -144 27 -184 86
-276 264 -232 451 9 38 15 70 14 70 -2 1 -23 18 -48 37 -25 19 -101 74 -170
122 -150 104 -360 262 -377 284 -10 13 -16 12 -45 -10 -71 -53 -148 -61 -215
-22 -29 17 -43 22 -43 13 0 -14 -110 -109 -139 -120 -13 -4 -20 -21 -24 -53
-12 -113 -132 -180 -222 -125 -18 11 -45 39 -61 62 -55 78 -29 191 55 241 62
37 150 13 199 -54 l28 -38 55 43 c83 65 85 69 63 113 -38 76 -16 191 48 250
74 69 198 53 282 -37 l46 -49 0 -83 1 -83 76 -60 c89 -71 310 -229 419 -300
42 -27 82 -54 89 -59 9 -7 29 7 66 45 59 61 128 99 177 99 l32 0 0 423 c0 233
3 465 6 515 l7 92 62 0 c57 0 63 -2 69 -22 3 -13 6 -245 6 -515 l0 -493 23 0
c45 0 132 -51 184 -107 l53 -56 54 39 c264 188 382 270 490 339 79 50 123 85
121 93 -3 8 -5 41 -5 74 0 57 -1 60 -17 46 -25 -21 -86 -40 -106 -32 -29 11
-21 64 18 121 50 75 166 186 232 223 69 39 133 96 523 466 253 241 299 280
317 273 11 -4 24 -12 28 -18 3 -6 11 -11 17 -11 12 0 -66 92 -179 209 -45 47
-83 91 -83 97 0 5 6 18 13 28 18 24 57 8 92 -38 31 -40 60 -56 50 -27 -3 10 1
24 10 31 8 7 15 18 15 24 0 6 11 24 25 39 14 15 23 27 19 27 -4 0 1 9 12 21
33 37 72 50 134 48 38 -2 65 2 77 12 23 17 -85 -101 -147 -161 -25 -25 -61
-57 -80 -71 l-34 -26 43 -46 c24 -26 48 -47 54 -47 6 0 72 61 147 134 l136
135 38 -9 c21 -5 50 -20 65 -34 15 -14 32 -26 39 -26 7 0 12 -5 12 -11 0 -5 6
-7 13 -4 6 4 -63 -68 -155 -160 -93 -92 -168 -170 -168 -174 1 -3 17 -24 36
-46 30 -34 37 -38 52 -27 9 7 37 22 62 34 39 18 52 20 101 12 56 -9 56 -9 76
21 11 16 59 78 106 138 48 59 98 128 113 152 14 25 33 49 41 53 16 9 -23 36
-212 147 -122 72 -392 249 -422 277 l-23 21 30 40 c17 23 30 47 30 54 0 15 21
17 36 4 5 -4 45 -28 89 -52 44 -23 100 -57 125 -74 80 -57 140 -88 140 -73 0
7 28 43 63 80 34 37 101 109 149 161 48 52 100 100 117 107 84 34 155 -54 117
-145 -16 -37 -98 -120 -238 -240 -38 -31 -68 -59 -68 -60 0 -6 172 -107 175
-103 9 9 192 264 252 351 38 54 72 105 78 112 6 10 4 20 -8 32 -22 26 -47 87
-47 119 0 14 7 40 15 58 l15 32 -67 70 c-106 111 -86 112 -215 -14 -62 -60
-156 -145 -208 -188 -52 -44 -115 -99 -140 -124 -65 -66 -91 -82 -107 -68 -20
16 -16 43 18 116 34 73 64 104 122 123 20 7 37 16 37 21 0 4 8 8 18 8 19 0 64
40 46 40 -5 0 -1 5 9 11 9 5 17 15 17 22 0 7 9 29 20 50 11 21 18 42 15 47 -4
6 1 10 9 10 9 0 16 9 16 21 0 11 5 17 10 14 6 -3 10 1 10 10 0 11 5 15 14 12
8 -3 17 0 19 7 3 8 19 15 36 18 16 2 28 1 25 -4 -6 -10 -1 -10 20 -2 9 3 14
10 11 14 -3 5 -1 12 5 15 6 4 9 2 8 -3 -2 -6 1 -10 6 -10 5 0 13 -6 17 -14 5
-8 9 -9 9 -2 0 6 -27 43 -59 82 -65 78 -79 106 -61 127 10 11 19 5 53 -35 23
-27 47 -49 52 -49 6 0 34 22 64 49 30 28 60 50 67 50 20 0 134 -52 134 -61 0
-9 -137 -121 -159 -130 -11 -4 9 -31 74 -97 80 -84 90 -91 105 -77 9 8 32 17
51 21 19 3 44 7 56 10 17 3 38 36 89 142 81 163 111 212 133 212 9 1 0 10 -20
20 -46 24 -116 103 -124 138 l-5 27 -485 0 c-309 0 -488 4 -494 10 -5 6 -11
39 -12 74 l-3 63 496 -1 496 -2 6 28 c11 49 77 125 135 155 67 35 171 39 237
9z m-7336 -40 c36 -26 60 -72 66 -128 16 -152 -167 -222 -261 -99 -101 132 62
323 195 227z m188 -193 l47 -1 -50 -6 c-55 -7 -75 -4 -75 11 0 6 7 7 16 4 9
-3 37 -7 62 -8z m149 -175 c15 -32 39 -53 77 -66 5 -1 1 -18 -9 -37 -20 -38
-279 -300 -394 -399 -68 -58 -77 -63 -110 -57 -50 8 -91 55 -91 104 0 68 -4
63 363 384 67 59 127 108 134 108 6 0 20 -17 30 -37z m5947 -36 c7 -7 15 -19
19 -27 4 -12 6 -12 6 1 1 13 11 7 39 -20 21 -20 36 -43 34 -53 -2 -9 -50 -60
-105 -114 -56 -54 -148 -143 -205 -198 -69 -68 -98 -91 -88 -71 8 17 16 61 16
100 4 148 39 249 106 303 43 35 124 74 140 68 8 -3 14 1 14 9 0 18 7 19 24 2z
m-6384 -29 c25 -27 23 -56 -5 -73 -46 -30 -84 22 -55 76 14 25 34 24 60 -3z
m918 -4 c23 -3 42 -10 42 -15 0 -17 -72 -98 -110 -124 -46 -32 -81 -32 -119 1
-43 36 -40 63 13 112 47 44 39 42 174 26z m273 -71 c21 -16 39 -34 39 -42 0
-22 -136 -151 -160 -151 -28 0 -100 40 -100 55 0 18 54 97 86 126 51 47 81 49
135 12z m-522 -159 c27 -35 28 -90 2 -104 -26 -14 -74 -13 -89 2 -17 17 -15
79 4 106 21 30 58 28 83 -4z m660 -46 c6 -29 16 -76 23 -105 l11 -52 -51 -58
c-27 -32 -193 -200 -369 -374 -328 -325 -370 -359 -444 -359 -46 0 -99 56 -99
104 0 53 32 107 92 157 80 65 261 234 466 431 170 166 333 308 352 308 5 0 13
-24 19 -52z m-955 -251 c16 -25 -12 -71 -46 -75 -20 -2 -31 4 -44 22 -15 24
-15 28 0 52 14 19 24 24 48 22 17 -2 36 -11 42 -21z m1002 -189 c3 -10 10 -16
15 -13 5 4 9 3 9 -2 0 -17 -37 -63 -75 -92 -22 -17 -59 -45 -83 -63 -24 -18
-70 -54 -103 -80 -102 -81 -238 -152 -256 -135 -11 12 27 75 67 110 21 18 70
59 110 92 40 33 100 85 134 116 114 103 124 110 151 97 14 -6 27 -19 31 -30z
m6044 -45 c29 -28 36 -70 15 -93 -37 -40 -105 -13 -105 42 0 59 51 87 90 51z
m-5877 -71 c35 -63 35 -62 -67 -127 -36 -22 -127 -80 -203 -128 -300 -192
-733 -457 -767 -470 -12 -5 -16 -13 -11 -25 4 -9 9 -51 12 -93 17 -234 -185
-435 -413 -409 -135 15 -260 94 -320 202 -27 50 -29 60 -29 168 0 97 4 124 23
171 26 65 85 136 148 180 123 84 343 69 458 -32 l38 -33 37 21 c368 211 435
252 769 466 75 49 163 102 194 118 31 16 60 33 63 39 13 22 38 4 68 -48z
m-1292 12 c10 -9 24 -34 31 -55 16 -55 -11 -124 -57 -146 -39 -19 -97 -11
-125 17 -25 25 -36 102 -20 140 27 64 121 89 171 44z m6913 -188 c3 -11 1 -25
-4 -30 -4 -6 -8 -15 -8 -21 -1 -16 -18 -17 -32 0 -7 8 -19 15 -26 15 -8 0 -14
5 -14 10 0 6 5 10 11 10 6 0 8 8 4 19 -8 26 22 43 46 28 10 -6 20 -20 23 -31z
m-5709 -236 c18 0 45 -23 45 -38 0 -11 -179 -207 -206 -227 -19 -12 -45 -19
-71 -16 -18 2 -43 55 -43 93 0 46 50 118 82 118 9 0 21 6 25 14 4 8 15 16 23
18 8 2 22 11 31 21 9 9 26 17 38 17 11 0 21 5 21 10 0 7 6 7 19 0 11 -5 27
-10 36 -10z m294 -94 c28 -38 51 -74 51 -81 0 -24 -479 -509 -525 -532 -51
-26 -73 -24 -110 8 -31 28 -35 36 -35 81 0 47 3 53 58 109 58 60 506 487 508
485 1 0 25 -32 53 -70z m3559 -367 c-114 -110 -227 -216 -250 -236 -73 -60
-192 -179 -468 -468 -404 -422 -593 -594 -656 -595 -6 0 -23 17 -38 38 -31 45
-35 115 -10 167 9 20 122 131 277 272 144 131 320 295 392 364 71 70 137 127
145 127 8 1 46 10 83 19 53 15 80 29 122 66 29 26 58 47 64 47 6 0 11 6 11 13
0 17 56 74 100 102 19 12 41 30 49 39 7 9 19 16 26 16 7 0 20 11 29 25 9 14
25 25 35 25 10 0 31 16 47 35 19 24 36 35 54 35 26 0 80 45 80 67 0 6 20 14
45 18 25 3 43 10 40 16 -4 5 2 9 12 9 11 0 -63 -78 -189 -201z m-3157 155 c13
-15 36 -34 51 -43 l27 -17 -99 -133 c-118 -158 -171 -220 -353 -417 -77 -82
-170 -186 -209 -232 l-70 -82 17 -43 c22 -53 24 -178 3 -227 -54 -127 -194
-181 -333 -128 -100 38 -154 115 -155 220 0 186 154 310 331 268 l53 -13 54
59 c30 32 89 104 132 159 43 55 153 188 245 295 91 107 190 232 218 277 29 46
55 83 58 83 3 0 16 -12 30 -26z m-1067 -35 c14 -17 26 -37 26 -46 0 -14 -29
-83 -35 -83 -1 0 -19 -7 -39 -15 -35 -15 -37 -15 -61 9 -30 30 -33 80 -8 116
40 59 79 65 117 19z m709 -94 c46 -20 55 -27 50 -45 -7 -27 -83 -110 -121
-133 -31 -17 -31 -17 -47 6 -30 46 -36 87 -18 124 14 31 56 73 73 73 4 0 32
-11 63 -25z m4792 -150 c36 -35 34 -88 -4 -126 -16 -16 -36 -29 -45 -29 -53 0
-94 55 -81 107 17 70 84 95 130 48z m-4982 -39 c55 -50 49 -82 -20 -127 -52
-32 -65 -30 -93 16 -20 33 -20 35 -4 67 46 90 61 96 117 44z m904 -12 c24 -9
43 -21 43 -26 0 -20 -116 -144 -374 -398 -148 -146 -278 -271 -288 -279 -32
-22 -88 -18 -109 8 -41 51 -22 86 88 164 43 30 116 95 163 144 145 151 269
289 302 334 17 24 39 49 47 56 22 17 78 16 128 -3z m-1593 -85 c50 -43 74
-121 57 -181 -30 -107 -124 -147 -226 -98 -110 53 -117 227 -11 291 21 13 50
19 88 19 50 0 62 -4 92 -31z m1255 -42 c28 7 27 -2 -10 -48 -34 -44 -54 -45
-96 -6 -39 35 6 75 63 56 12 -4 31 -5 43 -2z m3814 -134 c-9 -27 -20 -52 -25
-58 -7 -8 1 22 27 93 2 6 6 12 9 12 3 0 -2 -21 -11 -47z m-3215 22 c85 -6 144
-23 140 -40 -5 -25 -240 -285 -256 -285 -9 0 -30 5 -49 12 -27 10 -38 9 -65
-4 -62 -29 -222 -165 -258 -218 -49 -74 -123 -114 -175 -94 -23 9 -45 57 -45
98 0 34 29 79 85 129 61 56 74 65 81 59 4 -4 4 -1 0 6 -5 8 4 18 23 30 17 9
31 22 31 27 0 6 37 48 81 95 45 47 103 109 129 139 46 53 49 54 77 42 25 -10
36 -10 64 3 19 8 43 13 54 10 11 -3 48 -7 83 -9z m561 -300 c56 -38 81 -94 81
-179 0 -59 -4 -73 -31 -112 -33 -49 -92 -84 -139 -84 -61 0 -156 70 -179 133
-19 50 -13 138 12 179 23 39 60 72 99 88 40 17 114 6 157 -25z m-464 -12 c-9
-8 -18 -13 -21 -10 -8 8 19 36 29 30 4 -2 0 -11 -8 -20z m1154 -49 c-30 -32
-82 -48 -109 -34 -11 6 -20 16 -20 22 0 6 6 5 17 -3 13 -11 15 -11 9 -1 -5 9
-3 13 5 11 8 -1 27 3 42 9 15 7 33 11 40 9 7 -1 11 3 10 10 -2 7 4 10 13 6 13
-5 12 -9 -7 -29z m1850 16 c50 -25 109 -94 117 -137 10 -52 -1 -118 -25 -151
-11 -17 -42 -44 -69 -62 -38 -26 -54 -31 -87 -27 -93 10 -154 66 -176 162 -16
69 1 129 50 176 61 58 127 71 190 39z m-3042 -5 c0 -8 -4 -12 -9 -9 -5 3 -6
10 -3 15 9 13 12 11 12 -6z m33 -90 c0 -8 -4 -15 -10 -15 -5 0 -7 7 -4 15 4 8
8 15 10 15 2 0 4 -7 4 -15z m2505 -420 c37 -36 34 -86 -6 -119 -39 -33 -82
-34 -114 -1 -36 35 -31 77 13 128 23 26 78 22 107 -8z m-803 -352 c28 -33 28
-50 1 -77 -31 -31 -37 -32 -63 -6 -24 24 -26 57 -3 82 20 23 46 23 65 1z"/>
<path d="M2970 9170 c-34 -34 -20 -80 27 -95 45 -13 85 69 51 103 -18 18 -56
14 -78 -8z"/>
<path d="M5237 8946 c-18 -174 -171 -237 -332 -135 -25 16 -48 29 -52 29 -3 0
-3 -19 0 -41 7 -51 50 -114 106 -154 36 -25 54 -30 115 -33 80 -4 122 10 186
65 38 32 80 114 80 158 0 48 -19 102 -46 135 -37 44 -50 39 -57 -24z"/>
<path d="M5912 8397 c-16 -44 -53 -78 -94 -86 l-33 -7 34 -18 c86 -45 169 31
129 119 -15 33 -22 32 -36 -8z"/>
<path d="M4420 8393 c0 -22 -61 -73 -101 -83 -36 -10 -43 -9 -55 7 -14 17 -14
16 -4 -4 27 -56 93 -68 147 -27 25 19 33 32 33 57 0 29 -19 78 -20 50z"/>
<path d="M1434 8341 c-18 -11 -35 -25 -39 -32 -4 -6 6 -1 23 11 27 20 39 22
97 18 57 -5 63 -4 48 8 -26 20 -93 17 -129 -5z"/>
<path d="M1642 8200 c0 -14 2 -19 5 -12 2 6 2 18 0 25 -3 6 -5 1 -5 -13z"/>
<path d="M1380 8111 c0 -6 19 -22 41 -37 53 -33 110 -27 160 17 l34 30 -48
-27 c-56 -31 -107 -29 -157 6 -16 12 -30 17 -30 11z"/>
<path d="M2800 8116 c0 -20 -6 -51 -14 -70 -15 -36 -78 -93 -113 -102 -37 -10
-125 26 -162 65 l-34 35 5 -60 c5 -77 33 -118 102 -150 61 -29 97 -30 152 -5
74 34 133 118 134 189 0 39 -23 92 -51 118 -18 17 -19 16 -19 -20z"/>
<path d="M7564 8123 c-1 -60 -24 -105 -71 -138 -43 -29 -99 -33 -143 -10 -29
15 -30 15 -30 -8 0 -31 52 -102 87 -120 78 -40 154 -27 208 36 67 78 67 187 0
254 -18 18 -37 33 -42 33 -5 0 -9 -21 -9 -47z"/>
<path d="M4954 6849 c-251 -18 -398 -57 -604 -158 -154 -77 -260 -147 -377
-251 -232 -207 -421 -485 -502 -736 -54 -170 -63 -226 -68 -434 -4 -168 -2
-212 16 -320 64 -377 199 -640 465 -906 266 -266 664 -438 1077 -464 147 -9
287 -3 424 21 130 22 432 130 541 194 164 96 389 297 508 455 232 307 342 727
292 1110 -21 154 -42 240 -102 400 -89 241 -177 382 -364 582 -81 87 -130 127
-258 214 -86 60 -186 120 -222 135 -36 15 -87 37 -114 48 -64 28 -292 87 -409
106 -99 16 -132 16 -303 4z m236 -199 c71 -7 123 -16 138 -26 13 -9 22 -17 20
-19 -2 -2 -48 -11 -103 -20 -55 -9 -118 -25 -141 -36 l-41 -21 -114 32 c-158
43 -146 37 -122 61 16 17 39 22 129 28 60 5 111 9 114 9 3 1 57 -3 120 -8z
m493 -119 c132 -60 275 -167 426 -318 79 -79 141 -146 138 -149 -7 -8 -78 36
-137 86 -30 26 -71 58 -91 73 l-36 27 29 -82 c30 -82 30 -85 19 -173 -7 -49
-18 -96 -25 -103 -8 -8 -74 -18 -177 -27 -90 -8 -192 -17 -226 -21 -59 -6 -64
-5 -145 39 -142 78 -300 181 -320 207 -15 21 -18 48 -21 178 -2 151 -2 154 22
173 31 25 193 75 292 90 l80 11 -16 24 c-8 13 -15 28 -15 33 0 12 105 -24 203
-68z m-1008 40 c-6 -29 -5 -30 52 -41 80 -17 254 -78 276 -97 15 -14 17 -35
17 -152 0 -88 -5 -145 -13 -161 -7 -15 -90 -78 -202 -153 l-190 -127 -120 5
c-137 6 -358 29 -374 39 -35 22 -48 229 -18 284 30 55 15 55 -52 0 -59 -48
-171 -113 -171 -100 0 3 18 29 39 57 118 156 411 360 634 441 118 43 131 43
122 5z m-698 -601 c-1 -77 -1 -80 -23 -76 -29 6 -108 -76 -183 -188 -62 -92
-82 -135 -107 -233 -23 -93 -38 -84 -29 19 9 110 37 203 96 319 68 137 131
203 219 230 14 4 26 8 26 8 1 1 1 -35 1 -79z m2209 44 c10 -38 -5 -197 -20
-212 -10 -10 -16 -9 -31 8 -17 19 -17 23 0 125 12 71 22 105 31 105 8 0 17
-12 20 -26z m-1115 -84 c-18 -60 -105 -133 -270 -226 l-83 -46 5 -52 c6 -49 5
-48 -23 34 -16 47 -29 96 -27 109 3 31 140 128 283 200 86 44 101 49 113 36
12 -12 12 -21 2 -55z m-668 -175 c77 -13 143 -27 148 -32 11 -11 73 -191 104
-302 13 -47 29 -105 36 -129 13 -41 12 -46 -16 -95 -15 -29 -56 -95 -90 -147
-34 -53 -80 -128 -103 -167 -24 -41 -51 -75 -63 -78 -24 -8 -217 2 -324 16
-61 8 -74 13 -98 41 -65 75 -187 374 -187 458 0 26 157 311 218 394 62 84 92
87 375 41z m1630 15 c33 -26 87 -112 188 -300 l82 -150 -40 -123 c-41 -125
-130 -318 -162 -350 -23 -23 -179 -46 -317 -47 l-102 0 -48 78 c-26 42 -76
119 -112 171 -35 52 -77 121 -93 153 -27 53 -28 62 -19 105 19 86 111 351 133
384 26 38 64 51 232 74 217 30 226 30 258 5z m-2164 -82 c-30 -44 -29 -43 -29
-31 0 11 38 63 46 63 3 0 -5 -15 -17 -32z m2675 -359 c12 -60 6 -306 -9 -395
-25 -142 -101 -339 -147 -381 -23 -20 -219 -114 -228 -108 -3 2 2 79 11 172
16 161 19 172 57 248 22 44 68 151 102 237 62 156 62 157 106 177 24 11 53 34
65 51 29 38 35 38 43 -1z m-2860 -59 c55 -23 60 -31 87 -130 13 -51 50 -139
92 -220 l69 -135 8 -130 c5 -71 11 -149 15 -172 7 -40 6 -43 -15 -43 -31 0
-131 55 -171 93 -50 49 -125 217 -154 344 -28 119 -42 314 -31 407 l8 59 25
-27 c14 -15 44 -36 67 -46z m1615 -103 c44 -21 271 -391 271 -442 0 -20 -135
-283 -180 -352 -49 -75 -62 -78 -330 -78 -287 0 -281 -2 -360 117 -32 49 -85
141 -117 204 -54 107 -57 116 -45 147 17 47 191 332 230 377 29 34 39 40 85
43 99 9 419 -3 446 -16z m-1099 -456 c215 -19 231 -22 227 -34 -2 -7 -41 -15
-98 -20 -52 -4 -132 -11 -179 -15 l-85 -7 -5 -50 -5 -50 -8 64 c-12 106 -10
133 11 127 9 -2 73 -9 142 -15z m1500 -51 c0 -5 -4 -10 -9 -10 -5 0 -21 -24
-37 -54 -16 -30 -30 -53 -32 -51 -2 2 6 31 19 64 17 43 29 61 41 61 10 0 18
-4 18 -10z m610 -277 c-27 -49 -147 -183 -228 -257 -107 -97 -330 -232 -430
-261 l-23 -7 27 44 c56 89 82 113 188 172 87 49 119 74 176 137 58 64 88 87
187 142 65 36 119 66 121 67 2 0 -6 -17 -18 -37z m-2346 -48 c89 -44 107 -58
156 -118 61 -75 122 -120 223 -162 47 -20 83 -44 119 -81 57 -58 94 -112 84
-121 -11 -12 -178 61 -285 124 -127 74 -246 174 -329 276 -83 101 -132 184
-86 146 9 -8 62 -36 118 -64z m1111 -151 c138 -2 257 -4 266 -4 24 0 229 -148
241 -175 9 -21 7 -31 -15 -64 -36 -54 -149 -138 -211 -156 -177 -53 -489 -37
-601 30 -83 49 -156 116 -178 161 l-22 46 35 30 c148 126 183 150 209 143 14
-3 139 -8 276 -11z"/>
<path d="M6756 4912 c-10 -53 -22 -110 -26 -127 -5 -16 -11 -41 -14 -55 -20
-104 -150 -383 -225 -483 -24 -31 -44 -64 -46 -74 -1 -10 -7 -17 -12 -16 -5 1
-54 -46 -108 -105 -55 -59 -90 -99 -79 -89 22 18 39 23 30 8 -4 -5 0 -12 6
-14 12 -5 -35 -11 -55 -8 -5 1 -30 -18 -56 -41 -140 -126 -399 -256 -642 -322
-124 -34 -347 -65 -479 -67 -91 -2 -97 -3 -43 -8 34 -3 65 -9 68 -13 4 -4 10
-78 13 -164 l5 -156 71 5 c152 12 183 15 249 27 91 16 78 24 -20 11 -169 -22
-275 -32 -281 -27 -3 3 7 6 21 6 20 0 27 5 27 20 0 11 -7 20 -15 20 -8 0 -15
9 -15 20 0 15 7 20 29 20 24 0 28 -3 24 -20 -4 -15 0 -20 16 -20 11 0 21 5 21
10 0 6 -4 10 -10 10 -5 0 -10 5 -10 10 0 6 26 10 59 10 33 0 61 5 63 10 2 6
38 11 81 13 66 2 77 5 77 20 0 10 8 17 20 17 11 0 20 -4 20 -10 0 -5 9 -10 19
-10 11 0 22 -6 25 -12 5 -10 7 -10 12 0 3 6 14 12 25 12 10 0 19 5 19 10 0 6
18 10 40 10 22 0 40 -4 40 -10 0 -5 5 -10 10 -10 6 0 10 9 10 20 0 13 7 20 20
20 11 0 20 5 20 10 0 6 18 10 40 10 22 0 40 4 40 9 0 5 22 8 49 8 38 -2 47 -5
44 -17 -3 -11 -1 -10 10 3 8 9 24 17 35 17 12 0 48 14 79 32 32 17 70 38 86
45 15 8 24 19 21 25 -4 6 -3 8 3 5 6 -4 19 0 29 8 18 13 18 14 -6 9 l-25 -6
25 21 c30 24 44 27 36 6 -4 -12 -2 -13 14 -3 20 13 20 13 0 20 -17 6 -18 11
-8 33 6 14 15 25 20 25 4 0 8 9 8 19 0 15 7 19 35 19 19 0 41 7 50 16 18 18
49 10 41 -11 -3 -8 -1 -11 4 -8 6 3 10 15 10 26 0 10 5 18 12 16 8 -1 11 9 9
31 -2 31 -1 32 36 32 28 0 34 -3 23 -10 -12 -8 -12 -10 -1 -10 15 0 51 37 51
52 0 5 4 7 9 3 5 -3 12 -1 15 4 7 11 -13 9 -31 -2 -9 -6 -11 -3 -7 7 3 8 17
16 31 18 19 2 27 10 30 27 2 14 -2 28 -9 33 -10 6 -9 8 3 8 8 0 21 -6 28 -12
10 -11 11 -10 6 5 -4 9 -11 17 -16 17 -5 0 -9 14 -9 31 l0 31 53 -6 c32 -4 47
-3 38 3 -11 7 -10 14 5 39 10 17 21 29 26 26 4 -3 8 2 8 11 0 9 8 27 17 42 9
14 16 39 15 54 -2 23 2 29 18 29 11 0 20 5 20 10 0 6 7 10 15 10 9 0 15 9 15
21 0 16 5 20 19 16 15 -3 18 -1 14 11 -4 10 -2 13 5 8 7 -4 12 -3 12 3 0 5 -4
13 -10 16 -18 11 -10 27 10 22 15 -4 21 -1 19 11 -5 57 2 91 21 97 18 6 20 15
20 90 0 74 -2 83 -20 88 -19 5 -20 14 -20 141 0 129 -1 136 -20 136 -18 0 -20
7 -20 57 0 53 -1 56 -16 37 -11 -13 -17 -15 -20 -6 -3 6 -10 9 -16 6 -7 -5 -9
5 -4 29 4 19 3 38 -2 41 -5 3 -16 -39 -26 -92z m-191 -1072 c3 -5 -1 -10 -10
-10 -9 0 -13 5 -10 10 3 6 8 10 10 10 2 0 7 -4 10 -10z m-465 -375 c-33 -19
-46 -19 -30 0 7 8 22 15 34 15 20 -1 20 -2 -4 -15z m-983 -207 c-3 -8 -6 -5
-6 6 -1 11 2 17 5 13 3 -3 4 -12 1 -19z"/>
<path d="M6964 4465 c4 -24 14 -28 24 -8 9 15 7 19 -8 20 -10 1 -17 -4 -16
-12z"/>
<path d="M6906 4343 c2 -7 -1 -13 -6 -13 -6 0 -10 -6 -10 -13 0 -8 6 -14 14
-14 7 0 13 7 12 16 0 9 5 15 12 14 6 -2 12 2 12 8 0 6 -6 9 -14 6 -8 -3 -17
-3 -19 1 -2 4 -2 1 -1 -5z"/>
<path d="M6435 3740 c4 -6 11 -8 16 -5 14 9 11 15 -7 15 -8 0 -12 -5 -9 -10z"/>
<path d="M6440 3709 c0 -5 5 -7 10 -4 6 3 10 8 10 11 0 2 -4 4 -10 4 -5 0 -10
-5 -10 -11z"/>
<path d="M6279 3573 c-13 -16 -12 -17 4 -4 9 7 17 15 17 17 0 8 -8 3 -21 -13z"/>
<path d="M4898 3523 c7 -3 16 -2 19 1 4 3 -2 6 -13 5 -11 0 -14 -3 -6 -6z"/>
<path d="M5853 3356 c1 -6 -7 -9 -18 -8 -15 3 -17 1 -9 -8 9 -9 22 -7 55 9
l44 21 -37 -2 c-20 -1 -36 -7 -35 -12z"/>
<path d="M5785 3320 c-3 -5 -1 -10 4 -10 6 0 11 5 11 10 0 6 -2 10 -4 10 -3 0
-8 -4 -11 -10z"/>
<path d="M8911 6714 c0 -11 3 -14 6 -6 3 7 2 16 -1 19 -3 4 -6 -2 -5 -13z"/>
<path d="M1676 6873 c-26 -191 -270 -263 -384 -112 -20 26 -40 48 -44 48 -16
2 -7 -100 12 -152 36 -95 135 -166 234 -167 81 0 126 19 187 80 51 50 57 61
68 122 7 37 10 81 6 100 -9 41 -39 100 -58 116 -12 10 -15 5 -21 -35z"/>
<path d="M1760 6482 c0 -4 -25 -22 -56 -41 -30 -18 -54 -36 -52 -39 2 -4 24
-47 49 -97 25 -49 54 -111 64 -137 14 -39 22 -47 48 -51 18 -3 41 -8 52 -12
18 -5 31 10 91 102 39 59 74 113 78 120 4 7 -25 29 -76 59 -46 26 -104 60
-129 76 -46 28 -69 35 -69 20z"/>
<path d="M8223 6048 c-2 -5 3 -8 11 -8 9 0 16 -4 16 -10 0 -5 7 -10 15 -10 8
0 15 -4 15 -10 0 -5 13 -10 28 -10 18 0 29 5 29 15 0 8 -4 12 -9 9 -5 -4 -8 2
-6 12 3 15 -4 18 -45 18 -27 1 -51 -2 -54 -6z"/>
<path d="M8361 5984 c0 -11 3 -14 6 -6 3 7 2 16 -1 19 -3 4 -6 -2 -5 -13z"/>
<path d="M8310 5909 c0 -5 5 -7 10 -4 6 3 10 8 10 11 0 2 -4 4 -10 4 -5 0 -10
-5 -10 -11z"/>
<path d="M8820 5239 c0 -65 -23 -114 -69 -145 -47 -32 -117 -33 -156 -2 l-28
22 6 -39 c11 -66 87 -125 161 -125 130 0 226 142 170 253 -18 35 -63 87 -76
87 -4 0 -8 -23 -8 -51z"/>
<path d="M8446 4377 c-8 -34 -68 -80 -106 -81 -26 -1 -27 -2 -13 -18 32 -35
114 -15 139 33 18 35 18 50 0 74 -12 17 -13 17 -20 -8z"/>
<path d="M8768 3391 c7 -146 -86 -251 -221 -251 -59 0 -130 31 -178 76 -23 22
-27 23 -33 9 -29 -76 44 -189 160 -246 56 -28 71 -31 123 -26 242 21 350 289
191 470 -17 20 -35 37 -39 37 -3 0 -5 -31 -3 -69z"/>
<path d="M7511 3066 c-30 -48 -58 -66 -103 -66 -41 0 -43 -2 -27 -31 38 -71
179 -21 179 63 0 19 -6 42 -13 52 -13 17 -15 16 -36 -18z"/>
<path d="M6346 2269 c-3 -17 -20 -44 -36 -59 -33 -31 -69 -40 -112 -28 -16 3
-28 4 -28 2 0 -17 25 -46 50 -59 86 -44 192 22 176 110 -4 18 -15 40 -25 49
-17 16 -19 15 -25 -15z"/>
<path d="M3995 2228 c-11 -18 -35 -41 -53 -51 -29 -17 -39 -18 -70 -9 -20 6
-37 10 -38 9 -2 -1 4 -16 12 -33 30 -62 112 -73 168 -24 42 38 54 81 32 115
-21 32 -27 31 -51 -7z"/>
<path d="M5240 1623 c0 -91 -51 -173 -133 -215 -63 -32 -168 -23 -236 20 -29
17 -54 32 -57 32 -2 0 -4 -19 -4 -42 0 -88 98 -203 194 -229 82 -22 207 10
269 69 59 56 90 164 73 255 -7 40 -52 110 -84 133 -22 15 -22 14 -22 -23z"/>
<path d="M1710 3350 c0 -65 -39 -142 -91 -179 -34 -25 -52 -31 -94 -31 -90 0
-151 25 -213 86 -30 30 -56 53 -59 50 -13 -12 -14 -91 -2 -133 9 -35 28 -63
68 -103 90 -90 172 -116 272 -87 89 26 147 69 174 130 48 107 40 200 -25 277
l-29 35 -1 -45z"/>
<path d="M2768 2381 c8 -58 -60 -136 -130 -147 -26 -5 -42 1 -75 25 l-43 31 0
-40 c0 -32 7 -48 36 -80 90 -100 246 -62 285 70 10 33 9 46 -6 86 -28 73 -76
112 -67 55z"/>
</g>
</svg>
